<?xml version="1.0" encoding="UTF-8"?>
<svg width="410" height="410" xmlns="http://www.w3.org/2000/svg">
<rect width="410" height="410" fill="#ffffff"/>\n<g>\n<g fill="#000000"><circle cx="45.00" cy="45.00" r="5.00"/></g>\n<g fill="#000000"><circle cx="55.00" cy="45.00" r="5.00"/></g>\n<g fill="#000000"><circle cx="65.00" cy="45.00" r="5.00"/></g>\n<g fill="#000000"><circle cx="75.00" cy="45.00" r="5.00"/></g>\n<g fill="#000000"><circle cx="85.00" cy="45.00" r="5.00"/></g>\n<g fill="#000000"><circle cx="95.00" cy="45.00" r="5.00"/></g>\n<g fill="#000000"><circle cx="105.00" cy="45.00" r="5.00"/></g>\n<g fill="#000000"><circle cx="135.00" cy="45.00" r="5.00"/></g>\n<g fill="#000000"><circle cx="145.00" cy="45.00" r="5.00"/></g>\n<g fill="#000000"><circle cx="195.00" cy="45.00" r="5.00"/></g>\n<g fill="#000000"><circle cx="235.00" cy="45.00" r="5.00"/></g>\n<g fill="#000000"><circle cx="245.00" cy="45.00" r="5.00"/></g>\n<g fill="#000000"><circle cx="255.00" cy="45.00" r="5.00"/></g>\n<g fill="#000000"><circle cx="275.00" cy="45.00" r="5.00"/></g>\n<g fill="#000000"><circle cx="305.00" cy="45.00" r="5.00"/></g>\n<g fill="#000000"><circle cx="315.00" cy="45.00" r="5.00"/></g>\n<g fill="#000000"><circle cx="325.00" cy="45.00" r="5.00"/></g>\n<g fill="#000000"><circle cx="335.00" cy="45.00" r="5.00"/></g>\n<g fill="#000000"><circle cx="345.00" cy="45.00" r="5.00"/></g>\n<g fill="#000000"><circle cx="355.00" cy="45.00" r="5.00"/></g>\n<g fill="#000000"><circle cx="365.00" cy="45.00" r="5.00"/></g>\n<g fill="#000000"><circle cx="45.00" cy="55.00" r="5.00"/></g>\n<g fill="#000000"><circle cx="105.00" cy="55.00" r="5.00"/></g>\n<g fill="#000000"><circle cx="125.00" cy="55.00" r="5.00"/></g>\n<g fill="#000000"><circle cx="145.00" cy="55.00" r="5.00"/></g>\n<g fill="#000000"><circle cx="175.00" cy="55.00" r="5.00"/></g>\n<g fill="#000000"><circle cx="185.00" cy="55.00" r="5.00"/></g>\n<g fill="#000000"><circle cx="215.00" cy="55.00" r="5.00"/></g>\n<g fill="#000000"><circle cx="275.00" cy="55.00" r="5.00"/></g>\n<g fill="#000000"><circle cx="285.00" cy="55.00" r="5.00"/></g>\n<g fill="#000000"><circle cx="305.00" cy="55.00" r="5.00"/></g>\n<g fill="#000000"><circle cx="365.00" cy="55.00" r="5.00"/></g>\n<g fill="#000000"><circle cx="45.00" cy="65.00" r="5.00"/></g>\n<g fill="#000000"><circle cx="65.00" cy="65.00" r="5.00"/></g>\n<g fill="#000000"><circle cx="75.00" cy="65.00" r="5.00"/></g>\n<g fill="#000000"><circle cx="85.00" cy="65.00" r="5.00"/></g>\n<g fill="#000000"><circle cx="105.00" cy="65.00" r="5.00"/></g>\n<g fill="#000000"><circle cx="125.00" cy="65.00" r="5.00"/></g>\n<g fill="#000000"><circle cx="135.00" cy="65.00" r="5.00"/></g>\n<g fill="#000000"><circle cx="145.00" cy="65.00" r="5.00"/></g>\n<g fill="#000000"><circle cx="155.00" cy="65.00" r="5.00"/></g>\n<g fill="#000000"><circle cx="165.00" cy="65.00" r="5.00"/></g>\n<g fill="#000000"><circle cx="185.00" cy="65.00" r="5.00"/></g>\n<g fill="#000000"><circle cx="225.00" cy="65.00" r="5.00"/></g>\n<g fill="#000000"><circle cx="235.00" cy="65.00" r="5.00"/></g>\n<g fill="#000000"><circle cx="245.00" cy="65.00" r="5.00"/></g>\n<g fill="#000000"><circle cx="285.00" cy="65.00" r="5.00"/></g>\n<g fill="#000000"><circle cx="305.00" cy="65.00" r="5.00"/></g>\n<g fill="#000000"><circle cx="325.00" cy="65.00" r="5.00"/></g>\n<g fill="#000000"><circle cx="335.00" cy="65.00" r="5.00"/></g>\n<g fill="#000000"><circle cx="345.00" cy="65.00" r="5.00"/></g>\n<g fill="#000000"><circle cx="365.00" cy="65.00" r="5.00"/></g>\n<g fill="#000000"><circle cx="45.00" cy="75.00" r="5.00"/></g>\n<g fill="#000000"><circle cx="65.00" cy="75.00" r="5.00"/></g>\n<g fill="#000000"><circle cx="75.00" cy="75.00" r="5.00"/></g>\n<g fill="#000000"><circle cx="85.00" cy="75.00" r="5.00"/></g>\n<g fill="#000000"><circle cx="105.00" cy="75.00" r="5.00"/></g>\n<g fill="#000000"><circle cx="145.00" cy="75.00" r="5.00"/></g>\n<g fill="#000000"><circle cx="165.00" cy="75.00" r="5.00"/></g>\n<g fill="#000000"><circle cx="175.00" cy="75.00" r="5.00"/></g>\n<g fill="#000000"><circle cx="195.00" cy="75.00" r="5.00"/></g>\n<g fill="#000000"><circle cx="225.00" cy="75.00" r="5.00"/></g>\n<g fill="#000000"><circle cx="255.00" cy="75.00" r="5.00"/></g>\n<g fill="#000000"><circle cx="285.00" cy="75.00" r="5.00"/></g>\n<g fill="#000000"><circle cx="305.00" cy="75.00" r="5.00"/></g>\n<g fill="#000000"><circle cx="325.00" cy="75.00" r="5.00"/></g>\n<g fill="#000000"><circle cx="335.00" cy="75.00" r="5.00"/></g>\n<g fill="#000000"><circle cx="345.00" cy="75.00" r="5.00"/></g>\n<g fill="#000000"><circle cx="365.00" cy="75.00" r="5.00"/></g>\n<g fill="#000000"><circle cx="45.00" cy="85.00" r="5.00"/></g>\n<g fill="#000000"><circle cx="65.00" cy="85.00" r="5.00"/></g>\n<g fill="#000000"><circle cx="75.00" cy="85.00" r="5.00"/></g>\n<g fill="#000000"><circle cx="85.00" cy="85.00" r="5.00"/></g>\n<g fill="#000000"><circle cx="105.00" cy="85.00" r="5.00"/></g>\n<g fill="#000000"><circle cx="165.00" cy="85.00" r="5.00"/></g>\n<g fill="#000000"><circle cx="185.00" cy="85.00" r="5.00"/></g>\n<g fill="#000000"><circle cx="195.00" cy="85.00" r="5.00"/></g>\n<g fill="#000000"><circle cx="205.00" cy="85.00" r="5.00"/></g>\n<g fill="#000000"><circle cx="215.00" cy="85.00" r="5.00"/></g>\n<g fill="#000000"><circle cx="225.00" cy="85.00" r="5.00"/></g>\n<g fill="#000000"><circle cx="265.00" cy="85.00" r="5.00"/></g>\n<g fill="#000000"><circle cx="275.00" cy="85.00" r="5.00"/></g>\n<g fill="#000000"><circle cx="285.00" cy="85.00" r="5.00"/></g>\n<g fill="#000000"><circle cx="305.00" cy="85.00" r="5.00"/></g>\n<g fill="#000000"><circle cx="325.00" cy="85.00" r="5.00"/></g>\n<g fill="#000000"><circle cx="335.00" cy="85.00" r="5.00"/></g>\n<g fill="#000000"><circle cx="345.00" cy="85.00" r="5.00"/></g>\n<g fill="#000000"><circle cx="365.00" cy="85.00" r="5.00"/></g>\n<g fill="#000000"><circle cx="45.00" cy="95.00" r="5.00"/></g>\n<g fill="#000000"><circle cx="105.00" cy="95.00" r="5.00"/></g>\n<g fill="#000000"><circle cx="145.00" cy="95.00" r="5.00"/></g>\n<g fill="#000000"><circle cx="155.00" cy="95.00" r="5.00"/></g>\n<g fill="#000000"><circle cx="165.00" cy="95.00" r="5.00"/></g>\n<g fill="#000000"><circle cx="195.00" cy="95.00" r="5.00"/></g>\n<g fill="#000000"><circle cx="255.00" cy="95.00" r="5.00"/></g>\n<g fill="#000000"><circle cx="265.00" cy="95.00" r="5.00"/></g>\n<g fill="#000000"><circle cx="275.00" cy="95.00" r="5.00"/></g>\n<g fill="#000000"><circle cx="305.00" cy="95.00" r="5.00"/></g>\n<g fill="#000000"><circle cx="365.00" cy="95.00" r="5.00"/></g>\n<g fill="#000000"><circle cx="45.00" cy="105.00" r="5.00"/></g>\n<g fill="#000000"><circle cx="55.00" cy="105.00" r="5.00"/></g>\n<g fill="#000000"><circle cx="65.00" cy="105.00" r="5.00"/></g>\n<g fill="#000000"><circle cx="75.00" cy="105.00" r="5.00"/></g>\n<g fill="#000000"><circle cx="85.00" cy="105.00" r="5.00"/></g>\n<g fill="#000000"><circle cx="95.00" cy="105.00" r="5.00"/></g>\n<g fill="#000000"><circle cx="105.00" cy="105.00" r="5.00"/></g>\n<g fill="#000000"><circle cx="125.00" cy="105.00" r="5.00"/></g>\n<g fill="#000000"><circle cx="145.00" cy="105.00" r="5.00"/></g>\n<g fill="#000000"><circle cx="165.00" cy="105.00" r="5.00"/></g>\n<g fill="#000000"><circle cx="185.00" cy="105.00" r="5.00"/></g>\n<g fill="#000000"><circle cx="205.00" cy="105.00" r="5.00"/></g>\n<g fill="#000000"><circle cx="225.00" cy="105.00" r="5.00"/></g>\n<g fill="#000000"><circle cx="245.00" cy="105.00" r="5.00"/></g>\n<g fill="#000000"><circle cx="265.00" cy="105.00" r="5.00"/></g>\n<g fill="#000000"><circle cx="285.00" cy="105.00" r="5.00"/></g>\n<g fill="#000000"><circle cx="305.00" cy="105.00" r="5.00"/></g>\n<g fill="#000000"><circle cx="315.00" cy="105.00" r="5.00"/></g>\n<g fill="#000000"><circle cx="325.00" cy="105.00" r="5.00"/></g>\n<g fill="#000000"><circle cx="335.00" cy="105.00" r="5.00"/></g>\n<g fill="#000000"><circle cx="345.00" cy="105.00" r="5.00"/></g>\n<g fill="#000000"><circle cx="355.00" cy="105.00" r="5.00"/></g>\n<g fill="#000000"><circle cx="365.00" cy="105.00" r="5.00"/></g>\n<g fill="#000000"><circle cx="155.00" cy="115.00" r="5.00"/></g>\n<g fill="#000000"><circle cx="175.00" cy="115.00" r="5.00"/></g>\n<g fill="#000000"><circle cx="205.00" cy="115.00" r="5.00"/></g>\n<g fill="#000000"><circle cx="215.00" cy="115.00" r="5.00"/></g>\n<g fill="#000000"><circle cx="225.00" cy="115.00" r="5.00"/></g>\n<g fill="#000000"><circle cx="235.00" cy="115.00" r="5.00"/></g>\n<g fill="#000000"><circle cx="285.00" cy="115.00" r="5.00"/></g>\n<g fill="#000000"><circle cx="55.00" cy="125.00" r="5.00"/></g>\n<g fill="#000000"><circle cx="65.00" cy="125.00" r="5.00"/></g>\n<g fill="#000000"><circle cx="75.00" cy="125.00" r="5.00"/></g>\n<g fill="#000000"><circle cx="95.00" cy="125.00" r="5.00"/></g>\n<g fill="#000000"><circle cx="105.00" cy="125.00" r="5.00"/></g>\n<g fill="#000000"><circle cx="145.00" cy="125.00" r="5.00"/></g>\n<g fill="#000000"><circle cx="165.00" cy="125.00" r="5.00"/></g>\n<g fill="#000000"><circle cx="195.00" cy="125.00" r="5.00"/></g>\n<g fill="#000000"><circle cx="205.00" cy="125.00" r="5.00"/></g>\n<g fill="#000000"><circle cx="215.00" cy="125.00" r="5.00"/></g>\n<g fill="#000000"><circle cx="225.00" cy="125.00" r="5.00"/></g>\n<g fill="#000000"><circle cx="255.00" cy="125.00" r="5.00"/></g>\n<g fill="#000000"><circle cx="265.00" cy="125.00" r="5.00"/></g>\n<g fill="#000000"><circle cx="275.00" cy="125.00" r="5.00"/></g>\n<g fill="#000000"><circle cx="285.00" cy="125.00" r="5.00"/></g>\n<g fill="#000000"><circle cx="345.00" cy="125.00" r="5.00"/></g>\n<g fill="#000000"><circle cx="355.00" cy="125.00" r="5.00"/></g>\n<g fill="#000000"><circle cx="55.00" cy="135.00" r="5.00"/></g>\n<g fill="#000000"><circle cx="65.00" cy="135.00" r="5.00"/></g>\n<g fill="#000000"><circle cx="75.00" cy="135.00" r="5.00"/></g>\n<g fill="#000000"><circle cx="115.00" cy="135.00" r="5.00"/></g>\n<g fill="#000000"><circle cx="155.00" cy="135.00" r="5.00"/></g>\n<g fill="#000000"><circle cx="175.00" cy="135.00" r="5.00"/></g>\n<g fill="#000000"><circle cx="205.00" cy="135.00" r="5.00"/></g>\n<g fill="#000000"><circle cx="215.00" cy="135.00" r="5.00"/></g>\n<g fill="#000000"><circle cx="225.00" cy="135.00" r="5.00"/></g>\n<g fill="#000000"><circle cx="235.00" cy="135.00" r="5.00"/></g>\n<g fill="#000000"><circle cx="245.00" cy="135.00" r="5.00"/></g>\n<g fill="#000000"><circle cx="275.00" cy="135.00" r="5.00"/></g>\n<g fill="#000000"><circle cx="305.00" cy="135.00" r="5.00"/></g>\n<g fill="#000000"><circle cx="315.00" cy="135.00" r="5.00"/></g>\n<g fill="#000000"><circle cx="335.00" cy="135.00" r="5.00"/></g>\n<g fill="#000000"><circle cx="345.00" cy="135.00" r="5.00"/></g>\n<g fill="#000000"><circle cx="365.00" cy="135.00" r="5.00"/></g>\n<g fill="#000000"><circle cx="65.00" cy="145.00" r="5.00"/></g>\n<g fill="#000000"><circle cx="105.00" cy="145.00" r="5.00"/></g>\n<g fill="#000000"><circle cx="115.00" cy="145.00" r="5.00"/></g>\n<g fill="#000000"><circle cx="145.00" cy="145.00" r="5.00"/></g>\n<g fill="#000000"><circle cx="205.00" cy="145.00" r="5.00"/></g>\n<g fill="#000000"><circle cx="225.00" cy="145.00" r="5.00"/></g>\n<g fill="#000000"><circle cx="255.00" cy="145.00" r="5.00"/></g>\n<g fill="#000000"><circle cx="265.00" cy="145.00" r="5.00"/></g>\n<g fill="#000000"><circle cx="275.00" cy="145.00" r="5.00"/></g>\n<g fill="#000000"><circle cx="305.00" cy="145.00" r="5.00"/></g>\n<g fill="#000000"><circle cx="315.00" cy="145.00" r="5.00"/></g>\n<g fill="#000000"><circle cx="325.00" cy="145.00" r="5.00"/></g>\n<g fill="#000000"><circle cx="335.00" cy="145.00" r="5.00"/></g>\n<g fill="#000000"><circle cx="365.00" cy="145.00" r="5.00"/></g>\n<g fill="#000000"><circle cx="45.00" cy="155.00" r="5.00"/></g>\n<g fill="#000000"><circle cx="65.00" cy="155.00" r="5.00"/></g>\n<g fill="#000000"><circle cx="85.00" cy="155.00" r="5.00"/></g>\n<g fill="#000000"><circle cx="95.00" cy="155.00" r="5.00"/></g>\n<g fill="#000000"><circle cx="115.00" cy="155.00" r="5.00"/></g>\n<g fill="#000000"><circle cx="145.00" cy="155.00" r="5.00"/></g>\n<g fill="#000000"><circle cx="175.00" cy="155.00" r="5.00"/></g>\n<g fill="#000000"><circle cx="205.00" cy="155.00" r="5.00"/></g>\n<g fill="#000000"><circle cx="215.00" cy="155.00" r="5.00"/></g>\n<g fill="#000000"><circle cx="235.00" cy="155.00" r="5.00"/></g>\n<g fill="#000000"><circle cx="255.00" cy="155.00" r="5.00"/></g>\n<g fill="#000000"><circle cx="265.00" cy="155.00" r="5.00"/></g>\n<g fill="#000000"><circle cx="295.00" cy="155.00" r="5.00"/></g>\n<g fill="#000000"><circle cx="305.00" cy="155.00" r="5.00"/></g>\n<g fill="#000000"><circle cx="315.00" cy="155.00" r="5.00"/></g>\n<g fill="#000000"><circle cx="335.00" cy="155.00" r="5.00"/></g>\n<g fill="#000000"><circle cx="355.00" cy="155.00" r="5.00"/></g>\n<g fill="#000000"><circle cx="365.00" cy="155.00" r="5.00"/></g>\n<g fill="#000000"><circle cx="55.00" cy="165.00" r="5.00"/></g>\n<g fill="#000000"><circle cx="75.00" cy="165.00" r="5.00"/></g>\n<g fill="#000000"><circle cx="85.00" cy="165.00" r="5.00"/></g>\n<g fill="#000000"><circle cx="95.00" cy="165.00" r="5.00"/></g>\n<g fill="#000000"><circle cx="105.00" cy="165.00" r="5.00"/></g>\n<g fill="#000000"><circle cx="115.00" cy="165.00" r="5.00"/></g>\n<g fill="#000000"><circle cx="125.00" cy="165.00" r="5.00"/></g>\n<g fill="#000000"><circle cx="135.00" cy="165.00" r="5.00"/></g>\n<g fill="#000000"><circle cx="195.00" cy="165.00" r="5.00"/></g>\n<g fill="#000000"><circle cx="205.00" cy="165.00" r="5.00"/></g>\n<g fill="#000000"><circle cx="235.00" cy="165.00" r="5.00"/></g>\n<g fill="#000000"><circle cx="245.00" cy="165.00" r="5.00"/></g>\n<g fill="#000000"><circle cx="255.00" cy="165.00" r="5.00"/></g>\n<g fill="#000000"><circle cx="265.00" cy="165.00" r="5.00"/></g>\n<g fill="#000000"><circle cx="275.00" cy="165.00" r="5.00"/></g>\n<g fill="#000000"><circle cx="285.00" cy="165.00" r="5.00"/></g>\n<g fill="#000000"><circle cx="295.00" cy="165.00" r="5.00"/></g>\n<g fill="#000000"><circle cx="325.00" cy="165.00" r="5.00"/></g>\n<g fill="#000000"><circle cx="335.00" cy="165.00" r="5.00"/></g>\n<g fill="#000000"><circle cx="355.00" cy="165.00" r="5.00"/></g>\n<g fill="#000000"><circle cx="365.00" cy="165.00" r="5.00"/></g>\n<g fill="#000000"><circle cx="55.00" cy="175.00" r="5.00"/></g>\n<g fill="#000000"><circle cx="95.00" cy="175.00" r="5.00"/></g>\n<g fill="#000000"><circle cx="115.00" cy="175.00" r="5.00"/></g>\n<g fill="#000000"><circle cx="155.00" cy="175.00" r="5.00"/></g>\n<g fill="#000000"><circle cx="165.00" cy="175.00" r="5.00"/></g>\n<g fill="#000000"><circle cx="185.00" cy="175.00" r="5.00"/></g>\n<g fill="#000000"><circle cx="195.00" cy="175.00" r="5.00"/></g>\n<g fill="#000000"><circle cx="205.00" cy="175.00" r="5.00"/></g>\n<g fill="#000000"><circle cx="245.00" cy="175.00" r="5.00"/></g>\n<g fill="#000000"><circle cx="255.00" cy="175.00" r="5.00"/></g>\n<g fill="#000000"><circle cx="275.00" cy="175.00" r="5.00"/></g>\n<g fill="#000000"><circle cx="315.00" cy="175.00" r="5.00"/></g>\n<g fill="#000000"><circle cx="345.00" cy="175.00" r="5.00"/></g>\n<g fill="#000000"><circle cx="355.00" cy="175.00" r="5.00"/></g>\n<g fill="#000000"><circle cx="95.00" cy="185.00" r="5.00"/></g>\n<g fill="#000000"><circle cx="105.00" cy="185.00" r="5.00"/></g>\n<g fill="#000000"><circle cx="125.00" cy="185.00" r="5.00"/></g>\n<g fill="#000000"><circle cx="165.00" cy="185.00" r="5.00"/></g>\n<g fill="#000000"><circle cx="175.00" cy="185.00" r="5.00"/></g>\n<g fill="#000000"><circle cx="185.00" cy="185.00" r="5.00"/></g>\n<g fill="#000000"><circle cx="205.00" cy="185.00" r="5.00"/></g>\n<g fill="#000000"><circle cx="225.00" cy="185.00" r="5.00"/></g>\n<g fill="#000000"><circle cx="235.00" cy="185.00" r="5.00"/></g>\n<g fill="#000000"><circle cx="245.00" cy="185.00" r="5.00"/></g>\n<g fill="#000000"><circle cx="255.00" cy="185.00" r="5.00"/></g>\n<g fill="#000000"><circle cx="285.00" cy="185.00" r="5.00"/></g>\n<g fill="#000000"><circle cx="305.00" cy="185.00" r="5.00"/></g>\n<g fill="#000000"><circle cx="315.00" cy="185.00" r="5.00"/></g>\n<g fill="#000000"><circle cx="325.00" cy="185.00" r="5.00"/></g>\n<g fill="#000000"><circle cx="335.00" cy="185.00" r="5.00"/></g>\n<g fill="#000000"><circle cx="345.00" cy="185.00" r="5.00"/></g>\n<g fill="#000000"><circle cx="55.00" cy="195.00" r="5.00"/></g>\n<g fill="#000000"><circle cx="65.00" cy="195.00" r="5.00"/></g>\n<g fill="#000000"><circle cx="85.00" cy="195.00" r="5.00"/></g>\n<g fill="#000000"><circle cx="115.00" cy="195.00" r="5.00"/></g>\n<g fill="#000000"><circle cx="135.00" cy="195.00" r="5.00"/></g>\n<g fill="#000000"><circle cx="175.00" cy="195.00" r="5.00"/></g>\n<g fill="#000000"><circle cx="185.00" cy="195.00" r="5.00"/></g>\n<g fill="#000000"><circle cx="205.00" cy="195.00" r="5.00"/></g>\n<g fill="#000000"><circle cx="225.00" cy="195.00" r="5.00"/></g>\n<g fill="#000000"><circle cx="255.00" cy="195.00" r="5.00"/></g>\n<g fill="#000000"><circle cx="295.00" cy="195.00" r="5.00"/></g>\n<g fill="#000000"><circle cx="305.00" cy="195.00" r="5.00"/></g>\n<g fill="#000000"><circle cx="315.00" cy="195.00" r="5.00"/></g>\n<g fill="#000000"><circle cx="335.00" cy="195.00" r="5.00"/></g>\n<g fill="#000000"><circle cx="345.00" cy="195.00" r="5.00"/></g>\n<g fill="#000000"><circle cx="45.00" cy="205.00" r="5.00"/></g>\n<g fill="#000000"><circle cx="65.00" cy="205.00" r="5.00"/></g>\n<g fill="#000000"><circle cx="75.00" cy="205.00" r="5.00"/></g>\n<g fill="#000000"><circle cx="85.00" cy="205.00" r="5.00"/></g>\n<g fill="#000000"><circle cx="105.00" cy="205.00" r="5.00"/></g>\n<g fill="#000000"><circle cx="125.00" cy="205.00" r="5.00"/></g>\n<g fill="#000000"><circle cx="135.00" cy="205.00" r="5.00"/></g>\n<g fill="#000000"><circle cx="155.00" cy="205.00" r="5.00"/></g>\n<g fill="#000000"><circle cx="175.00" cy="205.00" r="5.00"/></g>\n<g fill="#000000"><circle cx="185.00" cy="205.00" r="5.00"/></g>\n<g fill="#000000"><circle cx="195.00" cy="205.00" r="5.00"/></g>\n<g fill="#000000"><circle cx="205.00" cy="205.00" r="5.00"/></g>\n<g fill="#000000"><circle cx="215.00" cy="205.00" r="5.00"/></g>\n<g fill="#000000"><circle cx="225.00" cy="205.00" r="5.00"/></g>\n<g fill="#000000"><circle cx="255.00" cy="205.00" r="5.00"/></g>\n<g fill="#000000"><circle cx="265.00" cy="205.00" r="5.00"/></g>\n<g fill="#000000"><circle cx="275.00" cy="205.00" r="5.00"/></g>\n<g fill="#000000"><circle cx="295.00" cy="205.00" r="5.00"/></g>\n<g fill="#000000"><circle cx="305.00" cy="205.00" r="5.00"/></g>\n<g fill="#000000"><circle cx="325.00" cy="205.00" r="5.00"/></g>\n<g fill="#000000"><circle cx="335.00" cy="205.00" r="5.00"/></g>\n<g fill="#000000"><circle cx="345.00" cy="205.00" r="5.00"/></g>\n<g fill="#000000"><circle cx="55.00" cy="215.00" r="5.00"/></g>\n<g fill="#000000"><circle cx="75.00" cy="215.00" r="5.00"/></g>\n<g fill="#000000"><circle cx="95.00" cy="215.00" r="5.00"/></g>\n<g fill="#000000"><circle cx="125.00" cy="215.00" r="5.00"/></g>\n<g fill="#000000"><circle cx="135.00" cy="215.00" r="5.00"/></g>\n<g fill="#000000"><circle cx="145.00" cy="215.00" r="5.00"/></g>\n<g fill="#000000"><circle cx="165.00" cy="215.00" r="5.00"/></g>\n<g fill="#000000"><circle cx="185.00" cy="215.00" r="5.00"/></g>\n<g fill="#000000"><circle cx="195.00" cy="215.00" r="5.00"/></g>\n<g fill="#000000"><circle cx="205.00" cy="215.00" r="5.00"/></g>\n<g fill="#000000"><circle cx="245.00" cy="215.00" r="5.00"/></g>\n<g fill="#000000"><circle cx="265.00" cy="215.00" r="5.00"/></g>\n<g fill="#000000"><circle cx="275.00" cy="215.00" r="5.00"/></g>\n<g fill="#000000"><circle cx="285.00" cy="215.00" r="5.00"/></g>\n<g fill="#000000"><circle cx="295.00" cy="215.00" r="5.00"/></g>\n<g fill="#000000"><circle cx="305.00" cy="215.00" r="5.00"/></g>\n<g fill="#000000"><circle cx="325.00" cy="215.00" r="5.00"/></g>\n<g fill="#000000"><circle cx="335.00" cy="215.00" r="5.00"/></g>\n<g fill="#000000"><circle cx="355.00" cy="215.00" r="5.00"/></g>\n<g fill="#000000"><circle cx="365.00" cy="215.00" r="5.00"/></g>\n<g fill="#000000"><circle cx="45.00" cy="225.00" r="5.00"/></g>\n<g fill="#000000"><circle cx="55.00" cy="225.00" r="5.00"/></g>\n<g fill="#000000"><circle cx="85.00" cy="225.00" r="5.00"/></g>\n<g fill="#000000"><circle cx="105.00" cy="225.00" r="5.00"/></g>\n<g fill="#000000"><circle cx="135.00" cy="225.00" r="5.00"/></g>\n<g fill="#000000"><circle cx="185.00" cy="225.00" r="5.00"/></g>\n<g fill="#000000"><circle cx="195.00" cy="225.00" r="5.00"/></g>\n<g fill="#000000"><circle cx="225.00" cy="225.00" r="5.00"/></g>\n<g fill="#000000"><circle cx="245.00" cy="225.00" r="5.00"/></g>\n<g fill="#000000"><circle cx="255.00" cy="225.00" r="5.00"/></g>\n<g fill="#000000"><circle cx="285.00" cy="225.00" r="5.00"/></g>\n<g fill="#000000"><circle cx="315.00" cy="225.00" r="5.00"/></g>\n<g fill="#000000"><circle cx="325.00" cy="225.00" r="5.00"/></g>\n<g fill="#000000"><circle cx="345.00" cy="225.00" r="5.00"/></g>\n<g fill="#000000"><circle cx="355.00" cy="225.00" r="5.00"/></g>\n<g fill="#000000"><circle cx="55.00" cy="235.00" r="5.00"/></g>\n<g fill="#000000"><circle cx="75.00" cy="235.00" r="5.00"/></g>\n<g fill="#000000"><circle cx="85.00" cy="235.00" r="5.00"/></g>\n<g fill="#000000"><circle cx="115.00" cy="235.00" r="5.00"/></g>\n<g fill="#000000"><circle cx="135.00" cy="235.00" r="5.00"/></g>\n<g fill="#000000"><circle cx="145.00" cy="235.00" r="5.00"/></g>\n<g fill="#000000"><circle cx="175.00" cy="235.00" r="5.00"/></g>\n<g fill="#000000"><circle cx="185.00" cy="235.00" r="5.00"/></g>\n<g fill="#000000"><circle cx="195.00" cy="235.00" r="5.00"/></g>\n<g fill="#000000"><circle cx="205.00" cy="235.00" r="5.00"/></g>\n<g fill="#000000"><circle cx="215.00" cy="235.00" r="5.00"/></g>\n<g fill="#000000"><circle cx="235.00" cy="235.00" r="5.00"/></g>\n<g fill="#000000"><circle cx="265.00" cy="235.00" r="5.00"/></g>\n<g fill="#000000"><circle cx="275.00" cy="235.00" r="5.00"/></g>\n<g fill="#000000"><circle cx="285.00" cy="235.00" r="5.00"/></g>\n<g fill="#000000"><circle cx="295.00" cy="235.00" r="5.00"/></g>\n<g fill="#000000"><circle cx="325.00" cy="235.00" r="5.00"/></g>\n<g fill="#000000"><circle cx="355.00" cy="235.00" r="5.00"/></g>\n<g fill="#000000"><circle cx="55.00" cy="245.00" r="5.00"/></g>\n<g fill="#000000"><circle cx="75.00" cy="245.00" r="5.00"/></g>\n<g fill="#000000"><circle cx="105.00" cy="245.00" r="5.00"/></g>\n<g fill="#000000"><circle cx="125.00" cy="245.00" r="5.00"/></g>\n<g fill="#000000"><circle cx="145.00" cy="245.00" r="5.00"/></g>\n<g fill="#000000"><circle cx="155.00" cy="245.00" r="5.00"/></g>\n<g fill="#000000"><circle cx="165.00" cy="245.00" r="5.00"/></g>\n<g fill="#000000"><circle cx="175.00" cy="245.00" r="5.00"/></g>\n<g fill="#000000"><circle cx="195.00" cy="245.00" r="5.00"/></g>\n<g fill="#000000"><circle cx="205.00" cy="245.00" r="5.00"/></g>\n<g fill="#000000"><circle cx="265.00" cy="245.00" r="5.00"/></g>\n<g fill="#000000"><circle cx="315.00" cy="245.00" r="5.00"/></g>\n<g fill="#000000"><circle cx="335.00" cy="245.00" r="5.00"/></g>\n<g fill="#000000"><circle cx="345.00" cy="245.00" r="5.00"/></g>\n<g fill="#000000"><circle cx="45.00" cy="255.00" r="5.00"/></g>\n<g fill="#000000"><circle cx="55.00" cy="255.00" r="5.00"/></g>\n<g fill="#000000"><circle cx="135.00" cy="255.00" r="5.00"/></g>\n<g fill="#000000"><circle cx="165.00" cy="255.00" r="5.00"/></g>\n<g fill="#000000"><circle cx="195.00" cy="255.00" r="5.00"/></g>\n<g fill="#000000"><circle cx="205.00" cy="255.00" r="5.00"/></g>\n<g fill="#000000"><circle cx="215.00" cy="255.00" r="5.00"/></g>\n<g fill="#000000"><circle cx="225.00" cy="255.00" r="5.00"/></g>\n<g fill="#000000"><circle cx="245.00" cy="255.00" r="5.00"/></g>\n<g fill="#000000"><circle cx="255.00" cy="255.00" r="5.00"/></g>\n<g fill="#000000"><circle cx="265.00" cy="255.00" r="5.00"/></g>\n<g fill="#000000"><circle cx="275.00" cy="255.00" r="5.00"/></g>\n<g fill="#000000"><circle cx="305.00" cy="255.00" r="5.00"/></g>\n<g fill="#000000"><circle cx="335.00" cy="255.00" r="5.00"/></g>\n<g fill="#000000"><circle cx="345.00" cy="255.00" r="5.00"/></g>\n<g fill="#000000"><circle cx="365.00" cy="255.00" r="5.00"/></g>\n<g fill="#000000"><circle cx="85.00" cy="265.00" r="5.00"/></g>\n<g fill="#000000"><circle cx="105.00" cy="265.00" r="5.00"/></g>\n<g fill="#000000"><circle cx="115.00" cy="265.00" r="5.00"/></g>\n<g fill="#000000"><circle cx="145.00" cy="265.00" r="5.00"/></g>\n<g fill="#000000"><circle cx="165.00" cy="265.00" r="5.00"/></g>\n<g fill="#000000"><circle cx="175.00" cy="265.00" r="5.00"/></g>\n<g fill="#000000"><circle cx="185.00" cy="265.00" r="5.00"/></g>\n<g fill="#000000"><circle cx="195.00" cy="265.00" r="5.00"/></g>\n<g fill="#000000"><circle cx="235.00" cy="265.00" r="5.00"/></g>\n<g fill="#000000"><circle cx="245.00" cy="265.00" r="5.00"/></g>\n<g fill="#000000"><circle cx="255.00" cy="265.00" r="5.00"/></g>\n<g fill="#000000"><circle cx="275.00" cy="265.00" r="5.00"/></g>\n<g fill="#000000"><circle cx="295.00" cy="265.00" r="5.00"/></g>\n<g fill="#000000"><circle cx="305.00" cy="265.00" r="5.00"/></g>\n<g fill="#000000"><circle cx="315.00" cy="265.00" r="5.00"/></g>\n<g fill="#000000"><circle cx="345.00" cy="265.00" r="5.00"/></g>\n<g fill="#000000"><circle cx="355.00" cy="265.00" r="5.00"/></g>\n<g fill="#000000"><circle cx="365.00" cy="265.00" r="5.00"/></g>\n<g fill="#000000"><circle cx="55.00" cy="275.00" r="5.00"/></g>\n<g fill="#000000"><circle cx="75.00" cy="275.00" r="5.00"/></g>\n<g fill="#000000"><circle cx="95.00" cy="275.00" r="5.00"/></g>\n<g fill="#000000"><circle cx="145.00" cy="275.00" r="5.00"/></g>\n<g fill="#000000"><circle cx="185.00" cy="275.00" r="5.00"/></g>\n<g fill="#000000"><circle cx="195.00" cy="275.00" r="5.00"/></g>\n<g fill="#000000"><circle cx="205.00" cy="275.00" r="5.00"/></g>\n<g fill="#000000"><circle cx="215.00" cy="275.00" r="5.00"/></g>\n<g fill="#000000"><circle cx="225.00" cy="275.00" r="5.00"/></g>\n<g fill="#000000"><circle cx="245.00" cy="275.00" r="5.00"/></g>\n<g fill="#000000"><circle cx="285.00" cy="275.00" r="5.00"/></g>\n<g fill="#000000"><circle cx="305.00" cy="275.00" r="5.00"/></g>\n<g fill="#000000"><circle cx="315.00" cy="275.00" r="5.00"/></g>\n<g fill="#000000"><circle cx="335.00" cy="275.00" r="5.00"/></g>\n<g fill="#000000"><circle cx="365.00" cy="275.00" r="5.00"/></g>\n<g fill="#000000"><circle cx="45.00" cy="285.00" r="5.00"/></g>\n<g fill="#000000"><circle cx="65.00" cy="285.00" r="5.00"/></g>\n<g fill="#000000"><circle cx="105.00" cy="285.00" r="5.00"/></g>\n<g fill="#000000"><circle cx="115.00" cy="285.00" r="5.00"/></g>\n<g fill="#000000"><circle cx="125.00" cy="285.00" r="5.00"/></g>\n<g fill="#000000"><circle cx="215.00" cy="285.00" r="5.00"/></g>\n<g fill="#000000"><circle cx="225.00" cy="285.00" r="5.00"/></g>\n<g fill="#000000"><circle cx="235.00" cy="285.00" r="5.00"/></g>\n<g fill="#000000"><circle cx="265.00" cy="285.00" r="5.00"/></g>\n<g fill="#000000"><circle cx="285.00" cy="285.00" r="5.00"/></g>\n<g fill="#000000"><circle cx="295.00" cy="285.00" r="5.00"/></g>\n<g fill="#000000"><circle cx="305.00" cy="285.00" r="5.00"/></g>\n<g fill="#000000"><circle cx="315.00" cy="285.00" r="5.00"/></g>\n<g fill="#000000"><circle cx="325.00" cy="285.00" r="5.00"/></g>\n<g fill="#000000"><circle cx="125.00" cy="295.00" r="5.00"/></g>\n<g fill="#000000"><circle cx="145.00" cy="295.00" r="5.00"/></g>\n<g fill="#000000"><circle cx="165.00" cy="295.00" r="5.00"/></g>\n<g fill="#000000"><circle cx="175.00" cy="295.00" r="5.00"/></g>\n<g fill="#000000"><circle cx="185.00" cy="295.00" r="5.00"/></g>\n<g fill="#000000"><circle cx="205.00" cy="295.00" r="5.00"/></g>\n<g fill="#000000"><circle cx="235.00" cy="295.00" r="5.00"/></g>\n<g fill="#000000"><circle cx="245.00" cy="295.00" r="5.00"/></g>\n<g fill="#000000"><circle cx="255.00" cy="295.00" r="5.00"/></g>\n<g fill="#000000"><circle cx="285.00" cy="295.00" r="5.00"/></g>\n<g fill="#000000"><circle cx="325.00" cy="295.00" r="5.00"/></g>\n<g fill="#000000"><circle cx="335.00" cy="295.00" r="5.00"/></g>\n<g fill="#000000"><circle cx="355.00" cy="295.00" r="5.00"/></g>\n<g fill="#000000"><circle cx="45.00" cy="305.00" r="5.00"/></g>\n<g fill="#000000"><circle cx="55.00" cy="305.00" r="5.00"/></g>\n<g fill="#000000"><circle cx="65.00" cy="305.00" r="5.00"/></g>\n<g fill="#000000"><circle cx="75.00" cy="305.00" r="5.00"/></g>\n<g fill="#000000"><circle cx="85.00" cy="305.00" r="5.00"/></g>\n<g fill="#000000"><circle cx="95.00" cy="305.00" r="5.00"/></g>\n<g fill="#000000"><circle cx="105.00" cy="305.00" r="5.00"/></g>\n<g fill="#000000"><circle cx="195.00" cy="305.00" r="5.00"/></g>\n<g fill="#000000"><circle cx="205.00" cy="305.00" r="5.00"/></g>\n<g fill="#000000"><circle cx="225.00" cy="305.00" r="5.00"/></g>\n<g fill="#000000"><circle cx="235.00" cy="305.00" r="5.00"/></g>\n<g fill="#000000"><circle cx="245.00" cy="305.00" r="5.00"/></g>\n<g fill="#000000"><circle cx="255.00" cy="305.00" r="5.00"/></g>\n<g fill="#000000"><circle cx="275.00" cy="305.00" r="5.00"/></g>\n<g fill="#000000"><circle cx="285.00" cy="305.00" r="5.00"/></g>\n<g fill="#000000"><circle cx="305.00" cy="305.00" r="5.00"/></g>\n<g fill="#000000"><circle cx="325.00" cy="305.00" r="5.00"/></g>\n<g fill="#000000"><circle cx="45.00" cy="315.00" r="5.00"/></g>\n<g fill="#000000"><circle cx="105.00" cy="315.00" r="5.00"/></g>\n<g fill="#000000"><circle cx="125.00" cy="315.00" r="5.00"/></g>\n<g fill="#000000"><circle cx="175.00" cy="315.00" r="5.00"/></g>\n<g fill="#000000"><circle cx="215.00" cy="315.00" r="5.00"/></g>\n<g fill="#000000"><circle cx="245.00" cy="315.00" r="5.00"/></g>\n<g fill="#000000"><circle cx="275.00" cy="315.00" r="5.00"/></g>\n<g fill="#000000"><circle cx="285.00" cy="315.00" r="5.00"/></g>\n<g fill="#000000"><circle cx="325.00" cy="315.00" r="5.00"/></g>\n<g fill="#000000"><circle cx="335.00" cy="315.00" r="5.00"/></g>\n<g fill="#000000"><circle cx="345.00" cy="315.00" r="5.00"/></g>\n<g fill="#000000"><circle cx="355.00" cy="315.00" r="5.00"/></g>\n<g fill="#000000"><circle cx="365.00" cy="315.00" r="5.00"/></g>\n<g fill="#000000"><circle cx="45.00" cy="325.00" r="5.00"/></g>\n<g fill="#000000"><circle cx="65.00" cy="325.00" r="5.00"/></g>\n<g fill="#000000"><circle cx="75.00" cy="325.00" r="5.00"/></g>\n<g fill="#000000"><circle cx="85.00" cy="325.00" r="5.00"/></g>\n<g fill="#000000"><circle cx="105.00" cy="325.00" r="5.00"/></g>\n<g fill="#000000"><circle cx="155.00" cy="325.00" r="5.00"/></g>\n<g fill="#000000"><circle cx="165.00" cy="325.00" r="5.00"/></g>\n<g fill="#000000"><circle cx="175.00" cy="325.00" r="5.00"/></g>\n<g fill="#000000"><circle cx="195.00" cy="325.00" r="5.00"/></g>\n<g fill="#000000"><circle cx="235.00" cy="325.00" r="5.00"/></g>\n<g fill="#000000"><circle cx="265.00" cy="325.00" r="5.00"/></g>\n<g fill="#000000"><circle cx="275.00" cy="325.00" r="5.00"/></g>\n<g fill="#000000"><circle cx="285.00" cy="325.00" r="5.00"/></g>\n<g fill="#000000"><circle cx="295.00" cy="325.00" r="5.00"/></g>\n<g fill="#000000"><circle cx="305.00" cy="325.00" r="5.00"/></g>\n<g fill="#000000"><circle cx="315.00" cy="325.00" r="5.00"/></g>\n<g fill="#000000"><circle cx="325.00" cy="325.00" r="5.00"/></g>\n<g fill="#000000"><circle cx="345.00" cy="325.00" r="5.00"/></g>\n<g fill="#000000"><circle cx="355.00" cy="325.00" r="5.00"/></g>\n<g fill="#000000"><circle cx="45.00" cy="335.00" r="5.00"/></g>\n<g fill="#000000"><circle cx="65.00" cy="335.00" r="5.00"/></g>\n<g fill="#000000"><circle cx="75.00" cy="335.00" r="5.00"/></g>\n<g fill="#000000"><circle cx="85.00" cy="335.00" r="5.00"/></g>\n<g fill="#000000"><circle cx="105.00" cy="335.00" r="5.00"/></g>\n<g fill="#000000"><circle cx="125.00" cy="335.00" r="5.00"/></g>\n<g fill="#000000"><circle cx="155.00" cy="335.00" r="5.00"/></g>\n<g fill="#000000"><circle cx="165.00" cy="335.00" r="5.00"/></g>\n<g fill="#000000"><circle cx="195.00" cy="335.00" r="5.00"/></g>\n<g fill="#000000"><circle cx="205.00" cy="335.00" r="5.00"/></g>\n<g fill="#000000"><circle cx="215.00" cy="335.00" r="5.00"/></g>\n<g fill="#000000"><circle cx="235.00" cy="335.00" r="5.00"/></g>\n<g fill="#000000"><circle cx="255.00" cy="335.00" r="5.00"/></g>\n<g fill="#000000"><circle cx="265.00" cy="335.00" r="5.00"/></g>\n<g fill="#000000"><circle cx="275.00" cy="335.00" r="5.00"/></g>\n<g fill="#000000"><circle cx="315.00" cy="335.00" r="5.00"/></g>\n<g fill="#000000"><circle cx="335.00" cy="335.00" r="5.00"/></g>\n<g fill="#000000"><circle cx="345.00" cy="335.00" r="5.00"/></g>\n<g fill="#000000"><circle cx="355.00" cy="335.00" r="5.00"/></g>\n<g fill="#000000"><circle cx="365.00" cy="335.00" r="5.00"/></g>\n<g fill="#000000"><circle cx="45.00" cy="345.00" r="5.00"/></g>\n<g fill="#000000"><circle cx="65.00" cy="345.00" r="5.00"/></g>\n<g fill="#000000"><circle cx="75.00" cy="345.00" r="5.00"/></g>\n<g fill="#000000"><circle cx="85.00" cy="345.00" r="5.00"/></g>\n<g fill="#000000"><circle cx="105.00" cy="345.00" r="5.00"/></g>\n<g fill="#000000"><circle cx="125.00" cy="345.00" r="5.00"/></g>\n<g fill="#000000"><circle cx="155.00" cy="345.00" r="5.00"/></g>\n<g fill="#000000"><circle cx="165.00" cy="345.00" r="5.00"/></g>\n<g fill="#000000"><circle cx="175.00" cy="345.00" r="5.00"/></g>\n<g fill="#000000"><circle cx="185.00" cy="345.00" r="5.00"/></g>\n<g fill="#000000"><circle cx="215.00" cy="345.00" r="5.00"/></g>\n<g fill="#000000"><circle cx="245.00" cy="345.00" r="5.00"/></g>\n<g fill="#000000"><circle cx="265.00" cy="345.00" r="5.00"/></g>\n<g fill="#000000"><circle cx="305.00" cy="345.00" r="5.00"/></g>\n<g fill="#000000"><circle cx="315.00" cy="345.00" r="5.00"/></g>\n<g fill="#000000"><circle cx="335.00" cy="345.00" r="5.00"/></g>\n<g fill="#000000"><circle cx="45.00" cy="355.00" r="5.00"/></g>\n<g fill="#000000"><circle cx="105.00" cy="355.00" r="5.00"/></g>\n<g fill="#000000"><circle cx="125.00" cy="355.00" r="5.00"/></g>\n<g fill="#000000"><circle cx="145.00" cy="355.00" r="5.00"/></g>\n<g fill="#000000"><circle cx="155.00" cy="355.00" r="5.00"/></g>\n<g fill="#000000"><circle cx="185.00" cy="355.00" r="5.00"/></g>\n<g fill="#000000"><circle cx="195.00" cy="355.00" r="5.00"/></g>\n<g fill="#000000"><circle cx="205.00" cy="355.00" r="5.00"/></g>\n<g fill="#000000"><circle cx="225.00" cy="355.00" r="5.00"/></g>\n<g fill="#000000"><circle cx="245.00" cy="355.00" r="5.00"/></g>\n<g fill="#000000"><circle cx="265.00" cy="355.00" r="5.00"/></g>\n<g fill="#000000"><circle cx="275.00" cy="355.00" r="5.00"/></g>\n<g fill="#000000"><circle cx="285.00" cy="355.00" r="5.00"/></g>\n<g fill="#000000"><circle cx="295.00" cy="355.00" r="5.00"/></g>\n<g fill="#000000"><circle cx="315.00" cy="355.00" r="5.00"/></g>\n<g fill="#000000"><circle cx="325.00" cy="355.00" r="5.00"/></g>\n<g fill="#000000"><circle cx="335.00" cy="355.00" r="5.00"/></g>\n<g fill="#000000"><circle cx="365.00" cy="355.00" r="5.00"/></g>\n<g fill="#000000"><circle cx="45.00" cy="365.00" r="5.00"/></g>\n<g fill="#000000"><circle cx="55.00" cy="365.00" r="5.00"/></g>\n<g fill="#000000"><circle cx="65.00" cy="365.00" r="5.00"/></g>\n<g fill="#000000"><circle cx="75.00" cy="365.00" r="5.00"/></g>\n<g fill="#000000"><circle cx="85.00" cy="365.00" r="5.00"/></g>\n<g fill="#000000"><circle cx="95.00" cy="365.00" r="5.00"/></g>\n<g fill="#000000"><circle cx="105.00" cy="365.00" r="5.00"/></g>\n<g fill="#000000"><circle cx="155.00" cy="365.00" r="5.00"/></g>\n<g fill="#000000"><circle cx="165.00" cy="365.00" r="5.00"/></g>\n<g fill="#000000"><circle cx="175.00" cy="365.00" r="5.00"/></g>\n<g fill="#000000"><circle cx="185.00" cy="365.00" r="5.00"/></g>\n<g fill="#000000"><circle cx="235.00" cy="365.00" r="5.00"/></g>\n<g fill="#000000"><circle cx="255.00" cy="365.00" r="5.00"/></g>\n<g fill="#000000"><circle cx="275.00" cy="365.00" r="5.00"/></g>\n<g fill="#000000"><circle cx="305.00" cy="365.00" r="5.00"/></g>\n<g fill="#000000"><circle cx="325.00" cy="365.00" r="5.00"/></g>\n<g fill="#000000"><circle cx="345.00" cy="365.00" r="5.00"/></g>\n</g>\n</svg>