<?xml version="1.0" encoding="UTF-8"?>
<svg width="740" height="740" xmlns="http://www.w3.org/2000/svg">
<rect width="740" height="740" fill="#ffffff"/>\n<g>\n<g fill="#000000"><rect x="40.00" y="40.00" width="20.00" height="20.00"/></g>\n<g fill="#000000"><rect x="60.00" y="40.00" width="20.00" height="20.00"/></g>\n<g fill="#000000"><rect x="80.00" y="40.00" width="20.00" height="20.00"/></g>\n<g fill="#000000"><rect x="100.00" y="40.00" width="20.00" height="20.00"/></g>\n<g fill="#000000"><rect x="120.00" y="40.00" width="20.00" height="20.00"/></g>\n<g fill="#000000"><rect x="140.00" y="40.00" width="20.00" height="20.00"/></g>\n<g fill="#000000"><rect x="160.00" y="40.00" width="20.00" height="20.00"/></g>\n<g fill="#000000"><rect x="220.00" y="40.00" width="20.00" height="20.00"/></g>\n<g fill="#000000"><rect x="240.00" y="40.00" width="20.00" height="20.00"/></g>\n<g fill="#000000"><rect x="340.00" y="40.00" width="20.00" height="20.00"/></g>\n<g fill="#000000"><rect x="420.00" y="40.00" width="20.00" height="20.00"/></g>\n<g fill="#000000"><rect x="440.00" y="40.00" width="20.00" height="20.00"/></g>\n<g fill="#000000"><rect x="460.00" y="40.00" width="20.00" height="20.00"/></g>\n<g fill="#000000"><rect x="500.00" y="40.00" width="20.00" height="20.00"/></g>\n<g fill="#000000"><rect x="560.00" y="40.00" width="20.00" height="20.00"/></g>\n<g fill="#000000"><rect x="580.00" y="40.00" width="20.00" height="20.00"/></g>\n<g fill="#000000"><rect x="600.00" y="40.00" width="20.00" height="20.00"/></g>\n<g fill="#000000"><rect x="620.00" y="40.00" width="20.00" height="20.00"/></g>\n<g fill="#000000"><rect x="640.00" y="40.00" width="20.00" height="20.00"/></g>\n<g fill="#000000"><rect x="660.00" y="40.00" width="20.00" height="20.00"/></g>\n<g fill="#000000"><rect x="680.00" y="40.00" width="20.00" height="20.00"/></g>\n<g fill="#000000"><rect x="40.00" y="60.00" width="20.00" height="20.00"/></g>\n<g fill="#000000"><rect x="160.00" y="60.00" width="20.00" height="20.00"/></g>\n<g fill="#000000"><rect x="200.00" y="60.00" width="20.00" height="20.00"/></g>\n<g fill="#000000"><rect x="240.00" y="60.00" width="20.00" height="20.00"/></g>\n<g fill="#000000"><rect x="300.00" y="60.00" width="20.00" height="20.00"/></g>\n<g fill="#000000"><rect x="320.00" y="60.00" width="20.00" height="20.00"/></g>\n<g fill="#000000"><rect x="380.00" y="60.00" width="20.00" height="20.00"/></g>\n<g fill="#000000"><rect x="500.00" y="60.00" width="20.00" height="20.00"/></g>\n<g fill="#000000"><rect x="520.00" y="60.00" width="20.00" height="20.00"/></g>\n<g fill="#000000"><rect x="560.00" y="60.00" width="20.00" height="20.00"/></g>\n<g fill="#000000"><rect x="680.00" y="60.00" width="20.00" height="20.00"/></g>\n<g fill="#000000"><rect x="40.00" y="80.00" width="20.00" height="20.00"/></g>\n<g fill="#000000"><rect x="80.00" y="80.00" width="20.00" height="20.00"/></g>\n<g fill="#000000"><rect x="100.00" y="80.00" width="20.00" height="20.00"/></g>\n<g fill="#000000"><rect x="120.00" y="80.00" width="20.00" height="20.00"/></g>\n<g fill="#000000"><rect x="160.00" y="80.00" width="20.00" height="20.00"/></g>\n<g fill="#000000"><rect x="200.00" y="80.00" width="20.00" height="20.00"/></g>\n<g fill="#000000"><rect x="220.00" y="80.00" width="20.00" height="20.00"/></g>\n<g fill="#000000"><rect x="240.00" y="80.00" width="20.00" height="20.00"/></g>\n<g fill="#000000"><rect x="260.00" y="80.00" width="20.00" height="20.00"/></g>\n<g fill="#000000"><rect x="280.00" y="80.00" width="20.00" height="20.00"/></g>\n<g fill="#000000"><rect x="320.00" y="80.00" width="20.00" height="20.00"/></g>\n<g fill="#000000"><rect x="400.00" y="80.00" width="20.00" height="20.00"/></g>\n<g fill="#000000"><rect x="420.00" y="80.00" width="20.00" height="20.00"/></g>\n<g fill="#000000"><rect x="440.00" y="80.00" width="20.00" height="20.00"/></g>\n<g fill="#000000"><rect x="520.00" y="80.00" width="20.00" height="20.00"/></g>\n<g fill="#000000"><rect x="560.00" y="80.00" width="20.00" height="20.00"/></g>\n<g fill="#000000"><rect x="600.00" y="80.00" width="20.00" height="20.00"/></g>\n<g fill="#000000"><rect x="620.00" y="80.00" width="20.00" height="20.00"/></g>\n<g fill="#000000"><rect x="640.00" y="80.00" width="20.00" height="20.00"/></g>\n<g fill="#000000"><rect x="680.00" y="80.00" width="20.00" height="20.00"/></g>\n<g fill="#000000"><rect x="40.00" y="100.00" width="20.00" height="20.00"/></g>\n<g fill="#000000"><rect x="80.00" y="100.00" width="20.00" height="20.00"/></g>\n<g fill="#000000"><rect x="100.00" y="100.00" width="20.00" height="20.00"/></g>\n<g fill="#000000"><rect x="120.00" y="100.00" width="20.00" height="20.00"/></g>\n<g fill="#000000"><rect x="160.00" y="100.00" width="20.00" height="20.00"/></g>\n<g fill="#000000"><rect x="240.00" y="100.00" width="20.00" height="20.00"/></g>\n<g fill="#000000"><rect x="280.00" y="100.00" width="20.00" height="20.00"/></g>\n<g fill="#000000"><rect x="300.00" y="100.00" width="20.00" height="20.00"/></g>\n<g fill="#000000"><rect x="340.00" y="100.00" width="20.00" height="20.00"/></g>\n<g fill="#000000"><rect x="400.00" y="100.00" width="20.00" height="20.00"/></g>\n<g fill="#000000"><rect x="460.00" y="100.00" width="20.00" height="20.00"/></g>\n<g fill="#000000"><rect x="520.00" y="100.00" width="20.00" height="20.00"/></g>\n<g fill="#000000"><rect x="560.00" y="100.00" width="20.00" height="20.00"/></g>\n<g fill="#000000"><rect x="600.00" y="100.00" width="20.00" height="20.00"/></g>\n<g fill="#000000"><rect x="620.00" y="100.00" width="20.00" height="20.00"/></g>\n<g fill="#000000"><rect x="640.00" y="100.00" width="20.00" height="20.00"/></g>\n<g fill="#000000"><rect x="680.00" y="100.00" width="20.00" height="20.00"/></g>\n<g fill="#000000"><rect x="40.00" y="120.00" width="20.00" height="20.00"/></g>\n<g fill="#000000"><rect x="80.00" y="120.00" width="20.00" height="20.00"/></g>\n<g fill="#000000"><rect x="100.00" y="120.00" width="20.00" height="20.00"/></g>\n<g fill="#000000"><rect x="120.00" y="120.00" width="20.00" height="20.00"/></g>\n<g fill="#000000"><rect x="160.00" y="120.00" width="20.00" height="20.00"/></g>\n<g fill="#000000"><rect x="280.00" y="120.00" width="20.00" height="20.00"/></g>\n<g fill="#000000"><rect x="320.00" y="120.00" width="20.00" height="20.00"/></g>\n<g fill="#000000"><rect x="340.00" y="120.00" width="20.00" height="20.00"/></g>\n<g fill="#000000"><rect x="360.00" y="120.00" width="20.00" height="20.00"/></g>\n<g fill="#000000"><rect x="380.00" y="120.00" width="20.00" height="20.00"/></g>\n<g fill="#000000"><rect x="400.00" y="120.00" width="20.00" height="20.00"/></g>\n<g fill="#000000"><rect x="480.00" y="120.00" width="20.00" height="20.00"/></g>\n<g fill="#000000"><rect x="500.00" y="120.00" width="20.00" height="20.00"/></g>\n<g fill="#000000"><rect x="520.00" y="120.00" width="20.00" height="20.00"/></g>\n<g fill="#000000"><rect x="560.00" y="120.00" width="20.00" height="20.00"/></g>\n<g fill="#000000"><rect x="600.00" y="120.00" width="20.00" height="20.00"/></g>\n<g fill="#000000"><rect x="620.00" y="120.00" width="20.00" height="20.00"/></g>\n<g fill="#000000"><rect x="640.00" y="120.00" width="20.00" height="20.00"/></g>\n<g fill="#000000"><rect x="680.00" y="120.00" width="20.00" height="20.00"/></g>\n<g fill="#000000"><rect x="40.00" y="140.00" width="20.00" height="20.00"/></g>\n<g fill="#000000"><rect x="160.00" y="140.00" width="20.00" height="20.00"/></g>\n<g fill="#000000"><rect x="240.00" y="140.00" width="20.00" height="20.00"/></g>\n<g fill="#000000"><rect x="260.00" y="140.00" width="20.00" height="20.00"/></g>\n<g fill="#000000"><rect x="280.00" y="140.00" width="20.00" height="20.00"/></g>\n<g fill="#000000"><rect x="340.00" y="140.00" width="20.00" height="20.00"/></g>\n<g fill="#000000"><rect x="460.00" y="140.00" width="20.00" height="20.00"/></g>\n<g fill="#000000"><rect x="480.00" y="140.00" width="20.00" height="20.00"/></g>\n<g fill="#000000"><rect x="500.00" y="140.00" width="20.00" height="20.00"/></g>\n<g fill="#000000"><rect x="560.00" y="140.00" width="20.00" height="20.00"/></g>\n<g fill="#000000"><rect x="680.00" y="140.00" width="20.00" height="20.00"/></g>\n<g fill="#000000"><rect x="40.00" y="160.00" width="20.00" height="20.00"/></g>\n<g fill="#000000"><rect x="60.00" y="160.00" width="20.00" height="20.00"/></g>\n<g fill="#000000"><rect x="80.00" y="160.00" width="20.00" height="20.00"/></g>\n<g fill="#000000"><rect x="100.00" y="160.00" width="20.00" height="20.00"/></g>\n<g fill="#000000"><rect x="120.00" y="160.00" width="20.00" height="20.00"/></g>\n<g fill="#000000"><rect x="140.00" y="160.00" width="20.00" height="20.00"/></g>\n<g fill="#000000"><rect x="160.00" y="160.00" width="20.00" height="20.00"/></g>\n<g fill="#000000"><rect x="200.00" y="160.00" width="20.00" height="20.00"/></g>\n<g fill="#000000"><rect x="240.00" y="160.00" width="20.00" height="20.00"/></g>\n<g fill="#000000"><rect x="280.00" y="160.00" width="20.00" height="20.00"/></g>\n<g fill="#000000"><rect x="320.00" y="160.00" width="20.00" height="20.00"/></g>\n<g fill="#000000"><rect x="360.00" y="160.00" width="20.00" height="20.00"/></g>\n<g fill="#000000"><rect x="400.00" y="160.00" width="20.00" height="20.00"/></g>\n<g fill="#000000"><rect x="440.00" y="160.00" width="20.00" height="20.00"/></g>\n<g fill="#000000"><rect x="480.00" y="160.00" width="20.00" height="20.00"/></g>\n<g fill="#000000"><rect x="520.00" y="160.00" width="20.00" height="20.00"/></g>\n<g fill="#000000"><rect x="560.00" y="160.00" width="20.00" height="20.00"/></g>\n<g fill="#000000"><rect x="580.00" y="160.00" width="20.00" height="20.00"/></g>\n<g fill="#000000"><rect x="600.00" y="160.00" width="20.00" height="20.00"/></g>\n<g fill="#000000"><rect x="620.00" y="160.00" width="20.00" height="20.00"/></g>\n<g fill="#000000"><rect x="640.00" y="160.00" width="20.00" height="20.00"/></g>\n<g fill="#000000"><rect x="660.00" y="160.00" width="20.00" height="20.00"/></g>\n<g fill="#000000"><rect x="680.00" y="160.00" width="20.00" height="20.00"/></g>\n<g fill="#000000"><rect x="260.00" y="180.00" width="20.00" height="20.00"/></g>\n<g fill="#000000"><rect x="300.00" y="180.00" width="20.00" height="20.00"/></g>\n<g fill="#000000"><rect x="360.00" y="180.00" width="20.00" height="20.00"/></g>\n<g fill="#000000"><rect x="380.00" y="180.00" width="20.00" height="20.00"/></g>\n<g fill="#000000"><rect x="400.00" y="180.00" width="20.00" height="20.00"/></g>\n<g fill="#000000"><rect x="420.00" y="180.00" width="20.00" height="20.00"/></g>\n<g fill="#000000"><rect x="520.00" y="180.00" width="20.00" height="20.00"/></g>\n<g fill="#000000"><rect x="60.00" y="200.00" width="20.00" height="20.00"/></g>\n<g fill="#000000"><rect x="80.00" y="200.00" width="20.00" height="20.00"/></g>\n<g fill="#000000"><rect x="100.00" y="200.00" width="20.00" height="20.00"/></g>\n<g fill="#000000"><rect x="140.00" y="200.00" width="20.00" height="20.00"/></g>\n<g fill="#000000"><rect x="160.00" y="200.00" width="20.00" height="20.00"/></g>\n<g fill="#000000"><rect x="240.00" y="200.00" width="20.00" height="20.00"/></g>\n<g fill="#000000"><rect x="280.00" y="200.00" width="20.00" height="20.00"/></g>\n<g fill="#000000"><rect x="340.00" y="200.00" width="20.00" height="20.00"/></g>\n<g fill="#000000"><rect x="360.00" y="200.00" width="20.00" height="20.00"/></g>\n<g fill="#000000"><rect x="380.00" y="200.00" width="20.00" height="20.00"/></g>\n<g fill="#000000"><rect x="400.00" y="200.00" width="20.00" height="20.00"/></g>\n<g fill="#000000"><rect x="460.00" y="200.00" width="20.00" height="20.00"/></g>\n<g fill="#000000"><rect x="480.00" y="200.00" width="20.00" height="20.00"/></g>\n<g fill="#000000"><rect x="500.00" y="200.00" width="20.00" height="20.00"/></g>\n<g fill="#000000"><rect x="520.00" y="200.00" width="20.00" height="20.00"/></g>\n<g fill="#000000"><rect x="640.00" y="200.00" width="20.00" height="20.00"/></g>\n<g fill="#000000"><rect x="660.00" y="200.00" width="20.00" height="20.00"/></g>\n<g fill="#000000"><rect x="60.00" y="220.00" width="20.00" height="20.00"/></g>\n<g fill="#000000"><rect x="80.00" y="220.00" width="20.00" height="20.00"/></g>\n<g fill="#000000"><rect x="100.00" y="220.00" width="20.00" height="20.00"/></g>\n<g fill="#000000"><rect x="180.00" y="220.00" width="20.00" height="20.00"/></g>\n<g fill="#000000"><rect x="260.00" y="220.00" width="20.00" height="20.00"/></g>\n<g fill="#000000"><rect x="300.00" y="220.00" width="20.00" height="20.00"/></g>\n<g fill="#000000"><rect x="360.00" y="220.00" width="20.00" height="20.00"/></g>\n<g fill="#000000"><rect x="380.00" y="220.00" width="20.00" height="20.00"/></g>\n<g fill="#000000"><rect x="400.00" y="220.00" width="20.00" height="20.00"/></g>\n<g fill="#000000"><rect x="420.00" y="220.00" width="20.00" height="20.00"/></g>\n<g fill="#000000"><rect x="440.00" y="220.00" width="20.00" height="20.00"/></g>\n<g fill="#000000"><rect x="500.00" y="220.00" width="20.00" height="20.00"/></g>\n<g fill="#000000"><rect x="560.00" y="220.00" width="20.00" height="20.00"/></g>\n<g fill="#000000"><rect x="580.00" y="220.00" width="20.00" height="20.00"/></g>\n<g fill="#000000"><rect x="620.00" y="220.00" width="20.00" height="20.00"/></g>\n<g fill="#000000"><rect x="640.00" y="220.00" width="20.00" height="20.00"/></g>\n<g fill="#000000"><rect x="680.00" y="220.00" width="20.00" height="20.00"/></g>\n<g fill="#000000"><rect x="80.00" y="240.00" width="20.00" height="20.00"/></g>\n<g fill="#000000"><rect x="160.00" y="240.00" width="20.00" height="20.00"/></g>\n<g fill="#000000"><rect x="180.00" y="240.00" width="20.00" height="20.00"/></g>\n<g fill="#000000"><rect x="240.00" y="240.00" width="20.00" height="20.00"/></g>\n<g fill="#000000"><rect x="360.00" y="240.00" width="20.00" height="20.00"/></g>\n<g fill="#000000"><rect x="400.00" y="240.00" width="20.00" height="20.00"/></g>\n<g fill="#000000"><rect x="460.00" y="240.00" width="20.00" height="20.00"/></g>\n<g fill="#000000"><rect x="480.00" y="240.00" width="20.00" height="20.00"/></g>\n<g fill="#000000"><rect x="500.00" y="240.00" width="20.00" height="20.00"/></g>\n<g fill="#000000"><rect x="560.00" y="240.00" width="20.00" height="20.00"/></g>\n<g fill="#000000"><rect x="580.00" y="240.00" width="20.00" height="20.00"/></g>\n<g fill="#000000"><rect x="600.00" y="240.00" width="20.00" height="20.00"/></g>\n<g fill="#000000"><rect x="620.00" y="240.00" width="20.00" height="20.00"/></g>\n<g fill="#000000"><rect x="680.00" y="240.00" width="20.00" height="20.00"/></g>\n<g fill="#000000"><rect x="40.00" y="260.00" width="20.00" height="20.00"/></g>\n<g fill="#000000"><rect x="80.00" y="260.00" width="20.00" height="20.00"/></g>\n<g fill="#000000"><rect x="120.00" y="260.00" width="20.00" height="20.00"/></g>\n<g fill="#000000"><rect x="140.00" y="260.00" width="20.00" height="20.00"/></g>\n<g fill="#000000"><rect x="180.00" y="260.00" width="20.00" height="20.00"/></g>\n<g fill="#000000"><rect x="240.00" y="260.00" width="20.00" height="20.00"/></g>\n<g fill="#000000"><rect x="300.00" y="260.00" width="20.00" height="20.00"/></g>\n<g fill="#000000"><rect x="360.00" y="260.00" width="20.00" height="20.00"/></g>\n<g fill="#000000"><rect x="380.00" y="260.00" width="20.00" height="20.00"/></g>\n<g fill="#000000"><rect x="420.00" y="260.00" width="20.00" height="20.00"/></g>\n<g fill="#000000"><rect x="460.00" y="260.00" width="20.00" height="20.00"/></g>\n<g fill="#000000"><rect x="480.00" y="260.00" width="20.00" height="20.00"/></g>\n<g fill="#000000"><rect x="540.00" y="260.00" width="20.00" height="20.00"/></g>\n<g fill="#000000"><rect x="560.00" y="260.00" width="20.00" height="20.00"/></g>\n<g fill="#000000"><rect x="580.00" y="260.00" width="20.00" height="20.00"/></g>\n<g fill="#000000"><rect x="620.00" y="260.00" width="20.00" height="20.00"/></g>\n<g fill="#000000"><rect x="660.00" y="260.00" width="20.00" height="20.00"/></g>\n<g fill="#000000"><rect x="680.00" y="260.00" width="20.00" height="20.00"/></g>\n<g fill="#000000"><rect x="60.00" y="280.00" width="20.00" height="20.00"/></g>\n<g fill="#000000"><rect x="100.00" y="280.00" width="20.00" height="20.00"/></g>\n<g fill="#000000"><rect x="120.00" y="280.00" width="20.00" height="20.00"/></g>\n<g fill="#000000"><rect x="140.00" y="280.00" width="20.00" height="20.00"/></g>\n<g fill="#000000"><rect x="160.00" y="280.00" width="20.00" height="20.00"/></g>\n<g fill="#000000"><rect x="180.00" y="280.00" width="20.00" height="20.00"/></g>\n<g fill="#000000"><rect x="200.00" y="280.00" width="20.00" height="20.00"/></g>\n<g fill="#000000"><rect x="220.00" y="280.00" width="20.00" height="20.00"/></g>\n<g fill="#000000"><rect x="340.00" y="280.00" width="20.00" height="20.00"/></g>\n<g fill="#000000"><rect x="360.00" y="280.00" width="20.00" height="20.00"/></g>\n<g fill="#000000"><rect x="420.00" y="280.00" width="20.00" height="20.00"/></g>\n<g fill="#000000"><rect x="440.00" y="280.00" width="20.00" height="20.00"/></g>\n<g fill="#000000"><rect x="460.00" y="280.00" width="20.00" height="20.00"/></g>\n<g fill="#000000"><rect x="480.00" y="280.00" width="20.00" height="20.00"/></g>\n<g fill="#000000"><rect x="500.00" y="280.00" width="20.00" height="20.00"/></g>\n<g fill="#000000"><rect x="520.00" y="280.00" width="20.00" height="20.00"/></g>\n<g fill="#000000"><rect x="540.00" y="280.00" width="20.00" height="20.00"/></g>\n<g fill="#000000"><rect x="600.00" y="280.00" width="20.00" height="20.00"/></g>\n<g fill="#000000"><rect x="620.00" y="280.00" width="20.00" height="20.00"/></g>\n<g fill="#000000"><rect x="660.00" y="280.00" width="20.00" height="20.00"/></g>\n<g fill="#000000"><rect x="680.00" y="280.00" width="20.00" height="20.00"/></g>\n<g fill="#000000"><rect x="60.00" y="300.00" width="20.00" height="20.00"/></g>\n<g fill="#000000"><rect x="140.00" y="300.00" width="20.00" height="20.00"/></g>\n<g fill="#000000"><rect x="180.00" y="300.00" width="20.00" height="20.00"/></g>\n<g fill="#000000"><rect x="260.00" y="300.00" width="20.00" height="20.00"/></g>\n<g fill="#000000"><rect x="280.00" y="300.00" width="20.00" height="20.00"/></g>\n<g fill="#000000"><rect x="320.00" y="300.00" width="20.00" height="20.00"/></g>\n<g fill="#000000"><rect x="340.00" y="300.00" width="20.00" height="20.00"/></g>\n<g fill="#000000"><rect x="360.00" y="300.00" width="20.00" height="20.00"/></g>\n<g fill="#000000"><rect x="440.00" y="300.00" width="20.00" height="20.00"/></g>\n<g fill="#000000"><rect x="460.00" y="300.00" width="20.00" height="20.00"/></g>\n<g fill="#000000"><rect x="500.00" y="300.00" width="20.00" height="20.00"/></g>\n<g fill="#000000"><rect x="580.00" y="300.00" width="20.00" height="20.00"/></g>\n<g fill="#000000"><rect x="640.00" y="300.00" width="20.00" height="20.00"/></g>\n<g fill="#000000"><rect x="660.00" y="300.00" width="20.00" height="20.00"/></g>\n<g fill="#000000"><rect x="140.00" y="320.00" width="20.00" height="20.00"/></g>\n<g fill="#000000"><rect x="160.00" y="320.00" width="20.00" height="20.00"/></g>\n<g fill="#000000"><rect x="200.00" y="320.00" width="20.00" height="20.00"/></g>\n<g fill="#000000"><rect x="280.00" y="320.00" width="20.00" height="20.00"/></g>\n<g fill="#000000"><rect x="300.00" y="320.00" width="20.00" height="20.00"/></g>\n<g fill="#000000"><rect x="320.00" y="320.00" width="20.00" height="20.00"/></g>\n<g fill="#000000"><rect x="360.00" y="320.00" width="20.00" height="20.00"/></g>\n<g fill="#000000"><rect x="400.00" y="320.00" width="20.00" height="20.00"/></g>\n<g fill="#000000"><rect x="420.00" y="320.00" width="20.00" height="20.00"/></g>\n<g fill="#000000"><rect x="440.00" y="320.00" width="20.00" height="20.00"/></g>\n<g fill="#000000"><rect x="460.00" y="320.00" width="20.00" height="20.00"/></g>\n<g fill="#000000"><rect x="520.00" y="320.00" width="20.00" height="20.00"/></g>\n<g fill="#000000"><rect x="560.00" y="320.00" width="20.00" height="20.00"/></g>\n<g fill="#000000"><rect x="580.00" y="320.00" width="20.00" height="20.00"/></g>\n<g fill="#000000"><rect x="600.00" y="320.00" width="20.00" height="20.00"/></g>\n<g fill="#000000"><rect x="620.00" y="320.00" width="20.00" height="20.00"/></g>\n<g fill="#000000"><rect x="640.00" y="320.00" width="20.00" height="20.00"/></g>\n<g fill="#000000"><rect x="60.00" y="340.00" width="20.00" height="20.00"/></g>\n<g fill="#000000"><rect x="80.00" y="340.00" width="20.00" height="20.00"/></g>\n<g fill="#000000"><rect x="120.00" y="340.00" width="20.00" height="20.00"/></g>\n<g fill="#000000"><rect x="180.00" y="340.00" width="20.00" height="20.00"/></g>\n<g fill="#000000"><rect x="220.00" y="340.00" width="20.00" height="20.00"/></g>\n<g fill="#000000"><rect x="300.00" y="340.00" width="20.00" height="20.00"/></g>\n<g fill="#000000"><rect x="320.00" y="340.00" width="20.00" height="20.00"/></g>\n<g fill="#000000"><rect x="360.00" y="340.00" width="20.00" height="20.00"/></g>\n<g fill="#000000"><rect x="400.00" y="340.00" width="20.00" height="20.00"/></g>\n<g fill="#000000"><rect x="460.00" y="340.00" width="20.00" height="20.00"/></g>\n<g fill="#000000"><rect x="540.00" y="340.00" width="20.00" height="20.00"/></g>\n<g fill="#000000"><rect x="560.00" y="340.00" width="20.00" height="20.00"/></g>\n<g fill="#000000"><rect x="580.00" y="340.00" width="20.00" height="20.00"/></g>\n<g fill="#000000"><rect x="620.00" y="340.00" width="20.00" height="20.00"/></g>\n<g fill="#000000"><rect x="640.00" y="340.00" width="20.00" height="20.00"/></g>\n<g fill="#000000"><rect x="40.00" y="360.00" width="20.00" height="20.00"/></g>\n<g fill="#000000"><rect x="80.00" y="360.00" width="20.00" height="20.00"/></g>\n<g fill="#000000"><rect x="100.00" y="360.00" width="20.00" height="20.00"/></g>\n<g fill="#000000"><rect x="120.00" y="360.00" width="20.00" height="20.00"/></g>\n<g fill="#000000"><rect x="160.00" y="360.00" width="20.00" height="20.00"/></g>\n<g fill="#000000"><rect x="200.00" y="360.00" width="20.00" height="20.00"/></g>\n<g fill="#000000"><rect x="220.00" y="360.00" width="20.00" height="20.00"/></g>\n<g fill="#000000"><rect x="260.00" y="360.00" width="20.00" height="20.00"/></g>\n<g fill="#000000"><rect x="300.00" y="360.00" width="20.00" height="20.00"/></g>\n<g fill="#000000"><rect x="320.00" y="360.00" width="20.00" height="20.00"/></g>\n<g fill="#000000"><rect x="340.00" y="360.00" width="20.00" height="20.00"/></g>\n<g fill="#000000"><rect x="360.00" y="360.00" width="20.00" height="20.00"/></g>\n<g fill="#000000"><rect x="380.00" y="360.00" width="20.00" height="20.00"/></g>\n<g fill="#000000"><rect x="400.00" y="360.00" width="20.00" height="20.00"/></g>\n<g fill="#000000"><rect x="460.00" y="360.00" width="20.00" height="20.00"/></g>\n<g fill="#000000"><rect x="480.00" y="360.00" width="20.00" height="20.00"/></g>\n<g fill="#000000"><rect x="500.00" y="360.00" width="20.00" height="20.00"/></g>\n<g fill="#000000"><rect x="540.00" y="360.00" width="20.00" height="20.00"/></g>\n<g fill="#000000"><rect x="560.00" y="360.00" width="20.00" height="20.00"/></g>\n<g fill="#000000"><rect x="600.00" y="360.00" width="20.00" height="20.00"/></g>\n<g fill="#000000"><rect x="620.00" y="360.00" width="20.00" height="20.00"/></g>\n<g fill="#000000"><rect x="640.00" y="360.00" width="20.00" height="20.00"/></g>\n<g fill="#000000"><rect x="60.00" y="380.00" width="20.00" height="20.00"/></g>\n<g fill="#000000"><rect x="100.00" y="380.00" width="20.00" height="20.00"/></g>\n<g fill="#000000"><rect x="140.00" y="380.00" width="20.00" height="20.00"/></g>\n<g fill="#000000"><rect x="200.00" y="380.00" width="20.00" height="20.00"/></g>\n<g fill="#000000"><rect x="220.00" y="380.00" width="20.00" height="20.00"/></g>\n<g fill="#000000"><rect x="240.00" y="380.00" width="20.00" height="20.00"/></g>\n<g fill="#000000"><rect x="280.00" y="380.00" width="20.00" height="20.00"/></g>\n<g fill="#000000"><rect x="320.00" y="380.00" width="20.00" height="20.00"/></g>\n<g fill="#000000"><rect x="340.00" y="380.00" width="20.00" height="20.00"/></g>\n<g fill="#000000"><rect x="360.00" y="380.00" width="20.00" height="20.00"/></g>\n<g fill="#000000"><rect x="440.00" y="380.00" width="20.00" height="20.00"/></g>\n<g fill="#000000"><rect x="480.00" y="380.00" width="20.00" height="20.00"/></g>\n<g fill="#000000"><rect x="500.00" y="380.00" width="20.00" height="20.00"/></g>\n<g fill="#000000"><rect x="520.00" y="380.00" width="20.00" height="20.00"/></g>\n<g fill="#000000"><rect x="540.00" y="380.00" width="20.00" height="20.00"/></g>\n<g fill="#000000"><rect x="560.00" y="380.00" width="20.00" height="20.00"/></g>\n<g fill="#000000"><rect x="600.00" y="380.00" width="20.00" height="20.00"/></g>\n<g fill="#000000"><rect x="620.00" y="380.00" width="20.00" height="20.00"/></g>\n<g fill="#000000"><rect x="660.00" y="380.00" width="20.00" height="20.00"/></g>\n<g fill="#000000"><rect x="680.00" y="380.00" width="20.00" height="20.00"/></g>\n<g fill="#000000"><rect x="40.00" y="400.00" width="20.00" height="20.00"/></g>\n<g fill="#000000"><rect x="60.00" y="400.00" width="20.00" height="20.00"/></g>\n<g fill="#000000"><rect x="120.00" y="400.00" width="20.00" height="20.00"/></g>\n<g fill="#000000"><rect x="160.00" y="400.00" width="20.00" height="20.00"/></g>\n<g fill="#000000"><rect x="220.00" y="400.00" width="20.00" height="20.00"/></g>\n<g fill="#000000"><rect x="320.00" y="400.00" width="20.00" height="20.00"/></g>\n<g fill="#000000"><rect x="340.00" y="400.00" width="20.00" height="20.00"/></g>\n<g fill="#000000"><rect x="400.00" y="400.00" width="20.00" height="20.00"/></g>\n<g fill="#000000"><rect x="440.00" y="400.00" width="20.00" height="20.00"/></g>\n<g fill="#000000"><rect x="460.00" y="400.00" width="20.00" height="20.00"/></g>\n<g fill="#000000"><rect x="520.00" y="400.00" width="20.00" height="20.00"/></g>\n<g fill="#000000"><rect x="580.00" y="400.00" width="20.00" height="20.00"/></g>\n<g fill="#000000"><rect x="600.00" y="400.00" width="20.00" height="20.00"/></g>\n<g fill="#000000"><rect x="640.00" y="400.00" width="20.00" height="20.00"/></g>\n<g fill="#000000"><rect x="660.00" y="400.00" width="20.00" height="20.00"/></g>\n<g fill="#000000"><rect x="60.00" y="420.00" width="20.00" height="20.00"/></g>\n<g fill="#000000"><rect x="100.00" y="420.00" width="20.00" height="20.00"/></g>\n<g fill="#000000"><rect x="120.00" y="420.00" width="20.00" height="20.00"/></g>\n<g fill="#000000"><rect x="180.00" y="420.00" width="20.00" height="20.00"/></g>\n<g fill="#000000"><rect x="220.00" y="420.00" width="20.00" height="20.00"/></g>\n<g fill="#000000"><rect x="240.00" y="420.00" width="20.00" height="20.00"/></g>\n<g fill="#000000"><rect x="300.00" y="420.00" width="20.00" height="20.00"/></g>\n<g fill="#000000"><rect x="320.00" y="420.00" width="20.00" height="20.00"/></g>\n<g fill="#000000"><rect x="340.00" y="420.00" width="20.00" height="20.00"/></g>\n<g fill="#000000"><rect x="360.00" y="420.00" width="20.00" height="20.00"/></g>\n<g fill="#000000"><rect x="380.00" y="420.00" width="20.00" height="20.00"/></g>\n<g fill="#000000"><rect x="420.00" y="420.00" width="20.00" height="20.00"/></g>\n<g fill="#000000"><rect x="480.00" y="420.00" width="20.00" height="20.00"/></g>\n<g fill="#000000"><rect x="500.00" y="420.00" width="20.00" height="20.00"/></g>\n<g fill="#000000"><rect x="520.00" y="420.00" width="20.00" height="20.00"/></g>\n<g fill="#000000"><rect x="540.00" y="420.00" width="20.00" height="20.00"/></g>\n<g fill="#000000"><rect x="600.00" y="420.00" width="20.00" height="20.00"/></g>\n<g fill="#000000"><rect x="660.00" y="420.00" width="20.00" height="20.00"/></g>\n<g fill="#000000"><rect x="60.00" y="440.00" width="20.00" height="20.00"/></g>\n<g fill="#000000"><rect x="100.00" y="440.00" width="20.00" height="20.00"/></g>\n<g fill="#000000"><rect x="160.00" y="440.00" width="20.00" height="20.00"/></g>\n<g fill="#000000"><rect x="200.00" y="440.00" width="20.00" height="20.00"/></g>\n<g fill="#000000"><rect x="240.00" y="440.00" width="20.00" height="20.00"/></g>\n<g fill="#000000"><rect x="260.00" y="440.00" width="20.00" height="20.00"/></g>\n<g fill="#000000"><rect x="280.00" y="440.00" width="20.00" height="20.00"/></g>\n<g fill="#000000"><rect x="300.00" y="440.00" width="20.00" height="20.00"/></g>\n<g fill="#000000"><rect x="340.00" y="440.00" width="20.00" height="20.00"/></g>\n<g fill="#000000"><rect x="360.00" y="440.00" width="20.00" height="20.00"/></g>\n<g fill="#000000"><rect x="480.00" y="440.00" width="20.00" height="20.00"/></g>\n<g fill="#000000"><rect x="580.00" y="440.00" width="20.00" height="20.00"/></g>\n<g fill="#000000"><rect x="620.00" y="440.00" width="20.00" height="20.00"/></g>\n<g fill="#000000"><rect x="640.00" y="440.00" width="20.00" height="20.00"/></g>\n<g fill="#000000"><rect x="40.00" y="460.00" width="20.00" height="20.00"/></g>\n<g fill="#000000"><rect x="60.00" y="460.00" width="20.00" height="20.00"/></g>\n<g fill="#000000"><rect x="220.00" y="460.00" width="20.00" height="20.00"/></g>\n<g fill="#000000"><rect x="280.00" y="460.00" width="20.00" height="20.00"/></g>\n<g fill="#000000"><rect x="340.00" y="460.00" width="20.00" height="20.00"/></g>\n<g fill="#000000"><rect x="360.00" y="460.00" width="20.00" height="20.00"/></g>\n<g fill="#000000"><rect x="380.00" y="460.00" width="20.00" height="20.00"/></g>\n<g fill="#000000"><rect x="400.00" y="460.00" width="20.00" height="20.00"/></g>\n<g fill="#000000"><rect x="440.00" y="460.00" width="20.00" height="20.00"/></g>\n<g fill="#000000"><rect x="460.00" y="460.00" width="20.00" height="20.00"/></g>\n<g fill="#000000"><rect x="480.00" y="460.00" width="20.00" height="20.00"/></g>\n<g fill="#000000"><rect x="500.00" y="460.00" width="20.00" height="20.00"/></g>\n<g fill="#000000"><rect x="560.00" y="460.00" width="20.00" height="20.00"/></g>\n<g fill="#000000"><rect x="620.00" y="460.00" width="20.00" height="20.00"/></g>\n<g fill="#000000"><rect x="640.00" y="460.00" width="20.00" height="20.00"/></g>\n<g fill="#000000"><rect x="680.00" y="460.00" width="20.00" height="20.00"/></g>\n<g fill="#000000"><rect x="120.00" y="480.00" width="20.00" height="20.00"/></g>\n<g fill="#000000"><rect x="160.00" y="480.00" width="20.00" height="20.00"/></g>\n<g fill="#000000"><rect x="180.00" y="480.00" width="20.00" height="20.00"/></g>\n<g fill="#000000"><rect x="240.00" y="480.00" width="20.00" height="20.00"/></g>\n<g fill="#000000"><rect x="280.00" y="480.00" width="20.00" height="20.00"/></g>\n<g fill="#000000"><rect x="300.00" y="480.00" width="20.00" height="20.00"/></g>\n<g fill="#000000"><rect x="320.00" y="480.00" width="20.00" height="20.00"/></g>\n<g fill="#000000"><rect x="340.00" y="480.00" width="20.00" height="20.00"/></g>\n<g fill="#000000"><rect x="420.00" y="480.00" width="20.00" height="20.00"/></g>\n<g fill="#000000"><rect x="440.00" y="480.00" width="20.00" height="20.00"/></g>\n<g fill="#000000"><rect x="460.00" y="480.00" width="20.00" height="20.00"/></g>\n<g fill="#000000"><rect x="500.00" y="480.00" width="20.00" height="20.00"/></g>\n<g fill="#000000"><rect x="540.00" y="480.00" width="20.00" height="20.00"/></g>\n<g fill="#000000"><rect x="560.00" y="480.00" width="20.00" height="20.00"/></g>\n<g fill="#000000"><rect x="580.00" y="480.00" width="20.00" height="20.00"/></g>\n<g fill="#000000"><rect x="640.00" y="480.00" width="20.00" height="20.00"/></g>\n<g fill="#000000"><rect x="660.00" y="480.00" width="20.00" height="20.00"/></g>\n<g fill="#000000"><rect x="680.00" y="480.00" width="20.00" height="20.00"/></g>\n<g fill="#000000"><rect x="60.00" y="500.00" width="20.00" height="20.00"/></g>\n<g fill="#000000"><rect x="100.00" y="500.00" width="20.00" height="20.00"/></g>\n<g fill="#000000"><rect x="140.00" y="500.00" width="20.00" height="20.00"/></g>\n<g fill="#000000"><rect x="240.00" y="500.00" width="20.00" height="20.00"/></g>\n<g fill="#000000"><rect x="320.00" y="500.00" width="20.00" height="20.00"/></g>\n<g fill="#000000"><rect x="340.00" y="500.00" width="20.00" height="20.00"/></g>\n<g fill="#000000"><rect x="360.00" y="500.00" width="20.00" height="20.00"/></g>\n<g fill="#000000"><rect x="380.00" y="500.00" width="20.00" height="20.00"/></g>\n<g fill="#000000"><rect x="400.00" y="500.00" width="20.00" height="20.00"/></g>\n<g fill="#000000"><rect x="440.00" y="500.00" width="20.00" height="20.00"/></g>\n<g fill="#000000"><rect x="520.00" y="500.00" width="20.00" height="20.00"/></g>\n<g fill="#000000"><rect x="560.00" y="500.00" width="20.00" height="20.00"/></g>\n<g fill="#000000"><rect x="580.00" y="500.00" width="20.00" height="20.00"/></g>\n<g fill="#000000"><rect x="620.00" y="500.00" width="20.00" height="20.00"/></g>\n<g fill="#000000"><rect x="680.00" y="500.00" width="20.00" height="20.00"/></g>\n<g fill="#000000"><rect x="40.00" y="520.00" width="20.00" height="20.00"/></g>\n<g fill="#000000"><rect x="80.00" y="520.00" width="20.00" height="20.00"/></g>\n<g fill="#000000"><rect x="160.00" y="520.00" width="20.00" height="20.00"/></g>\n<g fill="#000000"><rect x="180.00" y="520.00" width="20.00" height="20.00"/></g>\n<g fill="#000000"><rect x="200.00" y="520.00" width="20.00" height="20.00"/></g>\n<g fill="#000000"><rect x="380.00" y="520.00" width="20.00" height="20.00"/></g>\n<g fill="#000000"><rect x="400.00" y="520.00" width="20.00" height="20.00"/></g>\n<g fill="#000000"><rect x="420.00" y="520.00" width="20.00" height="20.00"/></g>\n<g fill="#000000"><rect x="480.00" y="520.00" width="20.00" height="20.00"/></g>\n<g fill="#000000"><rect x="520.00" y="520.00" width="20.00" height="20.00"/></g>\n<g fill="#000000"><rect x="540.00" y="520.00" width="20.00" height="20.00"/></g>\n<g fill="#000000"><rect x="560.00" y="520.00" width="20.00" height="20.00"/></g>\n<g fill="#000000"><rect x="580.00" y="520.00" width="20.00" height="20.00"/></g>\n<g fill="#000000"><rect x="600.00" y="520.00" width="20.00" height="20.00"/></g>\n<g fill="#000000"><rect x="200.00" y="540.00" width="20.00" height="20.00"/></g>\n<g fill="#000000"><rect x="240.00" y="540.00" width="20.00" height="20.00"/></g>\n<g fill="#000000"><rect x="280.00" y="540.00" width="20.00" height="20.00"/></g>\n<g fill="#000000"><rect x="300.00" y="540.00" width="20.00" height="20.00"/></g>\n<g fill="#000000"><rect x="320.00" y="540.00" width="20.00" height="20.00"/></g>\n<g fill="#000000"><rect x="360.00" y="540.00" width="20.00" height="20.00"/></g>\n<g fill="#000000"><rect x="420.00" y="540.00" width="20.00" height="20.00"/></g>\n<g fill="#000000"><rect x="440.00" y="540.00" width="20.00" height="20.00"/></g>\n<g fill="#000000"><rect x="460.00" y="540.00" width="20.00" height="20.00"/></g>\n<g fill="#000000"><rect x="520.00" y="540.00" width="20.00" height="20.00"/></g>\n<g fill="#000000"><rect x="600.00" y="540.00" width="20.00" height="20.00"/></g>\n<g fill="#000000"><rect x="620.00" y="540.00" width="20.00" height="20.00"/></g>\n<g fill="#000000"><rect x="660.00" y="540.00" width="20.00" height="20.00"/></g>\n<g fill="#000000"><rect x="40.00" y="560.00" width="20.00" height="20.00"/></g>\n<g fill="#000000"><rect x="60.00" y="560.00" width="20.00" height="20.00"/></g>\n<g fill="#000000"><rect x="80.00" y="560.00" width="20.00" height="20.00"/></g>\n<g fill="#000000"><rect x="100.00" y="560.00" width="20.00" height="20.00"/></g>\n<g fill="#000000"><rect x="120.00" y="560.00" width="20.00" height="20.00"/></g>\n<g fill="#000000"><rect x="140.00" y="560.00" width="20.00" height="20.00"/></g>\n<g fill="#000000"><rect x="160.00" y="560.00" width="20.00" height="20.00"/></g>\n<g fill="#000000"><rect x="340.00" y="560.00" width="20.00" height="20.00"/></g>\n<g fill="#000000"><rect x="360.00" y="560.00" width="20.00" height="20.00"/></g>\n<g fill="#000000"><rect x="400.00" y="560.00" width="20.00" height="20.00"/></g>\n<g fill="#000000"><rect x="420.00" y="560.00" width="20.00" height="20.00"/></g>\n<g fill="#000000"><rect x="440.00" y="560.00" width="20.00" height="20.00"/></g>\n<g fill="#000000"><rect x="460.00" y="560.00" width="20.00" height="20.00"/></g>\n<g fill="#000000"><rect x="500.00" y="560.00" width="20.00" height="20.00"/></g>\n<g fill="#000000"><rect x="520.00" y="560.00" width="20.00" height="20.00"/></g>\n<g fill="#000000"><rect x="560.00" y="560.00" width="20.00" height="20.00"/></g>\n<g fill="#000000"><rect x="600.00" y="560.00" width="20.00" height="20.00"/></g>\n<g fill="#000000"><rect x="40.00" y="580.00" width="20.00" height="20.00"/></g>\n<g fill="#000000"><rect x="160.00" y="580.00" width="20.00" height="20.00"/></g>\n<g fill="#000000"><rect x="200.00" y="580.00" width="20.00" height="20.00"/></g>\n<g fill="#000000"><rect x="300.00" y="580.00" width="20.00" height="20.00"/></g>\n<g fill="#000000"><rect x="380.00" y="580.00" width="20.00" height="20.00"/></g>\n<g fill="#000000"><rect x="440.00" y="580.00" width="20.00" height="20.00"/></g>\n<g fill="#000000"><rect x="500.00" y="580.00" width="20.00" height="20.00"/></g>\n<g fill="#000000"><rect x="520.00" y="580.00" width="20.00" height="20.00"/></g>\n<g fill="#000000"><rect x="600.00" y="580.00" width="20.00" height="20.00"/></g>\n<g fill="#000000"><rect x="620.00" y="580.00" width="20.00" height="20.00"/></g>\n<g fill="#000000"><rect x="640.00" y="580.00" width="20.00" height="20.00"/></g>\n<g fill="#000000"><rect x="660.00" y="580.00" width="20.00" height="20.00"/></g>\n<g fill="#000000"><rect x="680.00" y="580.00" width="20.00" height="20.00"/></g>\n<g fill="#000000"><rect x="40.00" y="600.00" width="20.00" height="20.00"/></g>\n<g fill="#000000"><rect x="80.00" y="600.00" width="20.00" height="20.00"/></g>\n<g fill="#000000"><rect x="100.00" y="600.00" width="20.00" height="20.00"/></g>\n<g fill="#000000"><rect x="120.00" y="600.00" width="20.00" height="20.00"/></g>\n<g fill="#000000"><rect x="160.00" y="600.00" width="20.00" height="20.00"/></g>\n<g fill="#000000"><rect x="260.00" y="600.00" width="20.00" height="20.00"/></g>\n<g fill="#000000"><rect x="280.00" y="600.00" width="20.00" height="20.00"/></g>\n<g fill="#000000"><rect x="300.00" y="600.00" width="20.00" height="20.00"/></g>\n<g fill="#000000"><rect x="340.00" y="600.00" width="20.00" height="20.00"/></g>\n<g fill="#000000"><rect x="420.00" y="600.00" width="20.00" height="20.00"/></g>\n<g fill="#000000"><rect x="480.00" y="600.00" width="20.00" height="20.00"/></g>\n<g fill="#000000"><rect x="500.00" y="600.00" width="20.00" height="20.00"/></g>\n<g fill="#000000"><rect x="520.00" y="600.00" width="20.00" height="20.00"/></g>\n<g fill="#000000"><rect x="540.00" y="600.00" width="20.00" height="20.00"/></g>\n<g fill="#000000"><rect x="560.00" y="600.00" width="20.00" height="20.00"/></g>\n<g fill="#000000"><rect x="580.00" y="600.00" width="20.00" height="20.00"/></g>\n<g fill="#000000"><rect x="600.00" y="600.00" width="20.00" height="20.00"/></g>\n<g fill="#000000"><rect x="640.00" y="600.00" width="20.00" height="20.00"/></g>\n<g fill="#000000"><rect x="660.00" y="600.00" width="20.00" height="20.00"/></g>\n<g fill="#000000"><rect x="40.00" y="620.00" width="20.00" height="20.00"/></g>\n<g fill="#000000"><rect x="80.00" y="620.00" width="20.00" height="20.00"/></g>\n<g fill="#000000"><rect x="100.00" y="620.00" width="20.00" height="20.00"/></g>\n<g fill="#000000"><rect x="120.00" y="620.00" width="20.00" height="20.00"/></g>\n<g fill="#000000"><rect x="160.00" y="620.00" width="20.00" height="20.00"/></g>\n<g fill="#000000"><rect x="200.00" y="620.00" width="20.00" height="20.00"/></g>\n<g fill="#000000"><rect x="260.00" y="620.00" width="20.00" height="20.00"/></g>\n<g fill="#000000"><rect x="280.00" y="620.00" width="20.00" height="20.00"/></g>\n<g fill="#000000"><rect x="340.00" y="620.00" width="20.00" height="20.00"/></g>\n<g fill="#000000"><rect x="360.00" y="620.00" width="20.00" height="20.00"/></g>\n<g fill="#000000"><rect x="380.00" y="620.00" width="20.00" height="20.00"/></g>\n<g fill="#000000"><rect x="420.00" y="620.00" width="20.00" height="20.00"/></g>\n<g fill="#000000"><rect x="460.00" y="620.00" width="20.00" height="20.00"/></g>\n<g fill="#000000"><rect x="480.00" y="620.00" width="20.00" height="20.00"/></g>\n<g fill="#000000"><rect x="500.00" y="620.00" width="20.00" height="20.00"/></g>\n<g fill="#000000"><rect x="580.00" y="620.00" width="20.00" height="20.00"/></g>\n<g fill="#000000"><rect x="620.00" y="620.00" width="20.00" height="20.00"/></g>\n<g fill="#000000"><rect x="640.00" y="620.00" width="20.00" height="20.00"/></g>\n<g fill="#000000"><rect x="660.00" y="620.00" width="20.00" height="20.00"/></g>\n<g fill="#000000"><rect x="680.00" y="620.00" width="20.00" height="20.00"/></g>\n<g fill="#000000"><rect x="40.00" y="640.00" width="20.00" height="20.00"/></g>\n<g fill="#000000"><rect x="80.00" y="640.00" width="20.00" height="20.00"/></g>\n<g fill="#000000"><rect x="100.00" y="640.00" width="20.00" height="20.00"/></g>\n<g fill="#000000"><rect x="120.00" y="640.00" width="20.00" height="20.00"/></g>\n<g fill="#000000"><rect x="160.00" y="640.00" width="20.00" height="20.00"/></g>\n<g fill="#000000"><rect x="200.00" y="640.00" width="20.00" height="20.00"/></g>\n<g fill="#000000"><rect x="260.00" y="640.00" width="20.00" height="20.00"/></g>\n<g fill="#000000"><rect x="280.00" y="640.00" width="20.00" height="20.00"/></g>\n<g fill="#000000"><rect x="300.00" y="640.00" width="20.00" height="20.00"/></g>\n<g fill="#000000"><rect x="320.00" y="640.00" width="20.00" height="20.00"/></g>\n<g fill="#000000"><rect x="380.00" y="640.00" width="20.00" height="20.00"/></g>\n<g fill="#000000"><rect x="440.00" y="640.00" width="20.00" height="20.00"/></g>\n<g fill="#000000"><rect x="480.00" y="640.00" width="20.00" height="20.00"/></g>\n<g fill="#000000"><rect x="560.00" y="640.00" width="20.00" height="20.00"/></g>\n<g fill="#000000"><rect x="580.00" y="640.00" width="20.00" height="20.00"/></g>\n<g fill="#000000"><rect x="620.00" y="640.00" width="20.00" height="20.00"/></g>\n<g fill="#000000"><rect x="40.00" y="660.00" width="20.00" height="20.00"/></g>\n<g fill="#000000"><rect x="160.00" y="660.00" width="20.00" height="20.00"/></g>\n<g fill="#000000"><rect x="200.00" y="660.00" width="20.00" height="20.00"/></g>\n<g fill="#000000"><rect x="240.00" y="660.00" width="20.00" height="20.00"/></g>\n<g fill="#000000"><rect x="260.00" y="660.00" width="20.00" height="20.00"/></g>\n<g fill="#000000"><rect x="320.00" y="660.00" width="20.00" height="20.00"/></g>\n<g fill="#000000"><rect x="340.00" y="660.00" width="20.00" height="20.00"/></g>\n<g fill="#000000"><rect x="360.00" y="660.00" width="20.00" height="20.00"/></g>\n<g fill="#000000"><rect x="400.00" y="660.00" width="20.00" height="20.00"/></g>\n<g fill="#000000"><rect x="440.00" y="660.00" width="20.00" height="20.00"/></g>\n<g fill="#000000"><rect x="480.00" y="660.00" width="20.00" height="20.00"/></g>\n<g fill="#000000"><rect x="500.00" y="660.00" width="20.00" height="20.00"/></g>\n<g fill="#000000"><rect x="520.00" y="660.00" width="20.00" height="20.00"/></g>\n<g fill="#000000"><rect x="540.00" y="660.00" width="20.00" height="20.00"/></g>\n<g fill="#000000"><rect x="580.00" y="660.00" width="20.00" height="20.00"/></g>\n<g fill="#000000"><rect x="600.00" y="660.00" width="20.00" height="20.00"/></g>\n<g fill="#000000"><rect x="620.00" y="660.00" width="20.00" height="20.00"/></g>\n<g fill="#000000"><rect x="680.00" y="660.00" width="20.00" height="20.00"/></g>\n<g fill="#000000"><rect x="40.00" y="680.00" width="20.00" height="20.00"/></g>\n<g fill="#000000"><rect x="60.00" y="680.00" width="20.00" height="20.00"/></g>\n<g fill="#000000"><rect x="80.00" y="680.00" width="20.00" height="20.00"/></g>\n<g fill="#000000"><rect x="100.00" y="680.00" width="20.00" height="20.00"/></g>\n<g fill="#000000"><rect x="120.00" y="680.00" width="20.00" height="20.00"/></g>\n<g fill="#000000"><rect x="140.00" y="680.00" width="20.00" height="20.00"/></g>\n<g fill="#000000"><rect x="160.00" y="680.00" width="20.00" height="20.00"/></g>\n<g fill="#000000"><rect x="260.00" y="680.00" width="20.00" height="20.00"/></g>\n<g fill="#000000"><rect x="280.00" y="680.00" width="20.00" height="20.00"/></g>\n<g fill="#000000"><rect x="300.00" y="680.00" width="20.00" height="20.00"/></g>\n<g fill="#000000"><rect x="320.00" y="680.00" width="20.00" height="20.00"/></g>\n<g fill="#000000"><rect x="420.00" y="680.00" width="20.00" height="20.00"/></g>\n<g fill="#000000"><rect x="460.00" y="680.00" width="20.00" height="20.00"/></g>\n<g fill="#000000"><rect x="500.00" y="680.00" width="20.00" height="20.00"/></g>\n<g fill="#000000"><rect x="560.00" y="680.00" width="20.00" height="20.00"/></g>\n<g fill="#000000"><rect x="600.00" y="680.00" width="20.00" height="20.00"/></g>\n<g fill="#000000"><rect x="640.00" y="680.00" width="20.00" height="20.00"/></g>\n</g>\n</svg>