<?xml version="1.0" encoding="UTF-8"?>
<svg width="410" height="410" xmlns="http://www.w3.org/2000/svg">
<rect width="410" height="410" fill="#ffffff"/>\n<g>\n<g fill="#000000"><rect x="40.00" y="40.00" width="10.00" height="10.00"/></g>\n<g fill="#000000"><rect x="50.00" y="40.00" width="10.00" height="10.00"/></g>\n<g fill="#000000"><rect x="60.00" y="40.00" width="10.00" height="10.00"/></g>\n<g fill="#000000"><rect x="70.00" y="40.00" width="10.00" height="10.00"/></g>\n<g fill="#000000"><rect x="80.00" y="40.00" width="10.00" height="10.00"/></g>\n<g fill="#000000"><rect x="90.00" y="40.00" width="10.00" height="10.00"/></g>\n<g fill="#000000"><rect x="100.00" y="40.00" width="10.00" height="10.00"/></g>\n<g fill="#000000"><rect x="130.00" y="40.00" width="10.00" height="10.00"/></g>\n<g fill="#000000"><rect x="140.00" y="40.00" width="10.00" height="10.00"/></g>\n<g fill="#000000"><rect x="190.00" y="40.00" width="10.00" height="10.00"/></g>\n<g fill="#000000"><rect x="230.00" y="40.00" width="10.00" height="10.00"/></g>\n<g fill="#000000"><rect x="240.00" y="40.00" width="10.00" height="10.00"/></g>\n<g fill="#000000"><rect x="250.00" y="40.00" width="10.00" height="10.00"/></g>\n<g fill="#000000"><rect x="270.00" y="40.00" width="10.00" height="10.00"/></g>\n<g fill="#000000"><rect x="300.00" y="40.00" width="10.00" height="10.00"/></g>\n<g fill="#000000"><rect x="310.00" y="40.00" width="10.00" height="10.00"/></g>\n<g fill="#000000"><rect x="320.00" y="40.00" width="10.00" height="10.00"/></g>\n<g fill="#000000"><rect x="330.00" y="40.00" width="10.00" height="10.00"/></g>\n<g fill="#000000"><rect x="340.00" y="40.00" width="10.00" height="10.00"/></g>\n<g fill="#000000"><rect x="350.00" y="40.00" width="10.00" height="10.00"/></g>\n<g fill="#000000"><rect x="360.00" y="40.00" width="10.00" height="10.00"/></g>\n<g fill="#000000"><rect x="40.00" y="50.00" width="10.00" height="10.00"/></g>\n<g fill="#000000"><rect x="100.00" y="50.00" width="10.00" height="10.00"/></g>\n<g fill="#000000"><rect x="120.00" y="50.00" width="10.00" height="10.00"/></g>\n<g fill="#000000"><rect x="140.00" y="50.00" width="10.00" height="10.00"/></g>\n<g fill="#000000"><rect x="170.00" y="50.00" width="10.00" height="10.00"/></g>\n<g fill="#000000"><rect x="180.00" y="50.00" width="10.00" height="10.00"/></g>\n<g fill="#000000"><rect x="210.00" y="50.00" width="10.00" height="10.00"/></g>\n<g fill="#000000"><rect x="270.00" y="50.00" width="10.00" height="10.00"/></g>\n<g fill="#000000"><rect x="280.00" y="50.00" width="10.00" height="10.00"/></g>\n<g fill="#000000"><rect x="300.00" y="50.00" width="10.00" height="10.00"/></g>\n<g fill="#000000"><rect x="360.00" y="50.00" width="10.00" height="10.00"/></g>\n<g fill="#000000"><rect x="40.00" y="60.00" width="10.00" height="10.00"/></g>\n<g fill="#000000"><rect x="60.00" y="60.00" width="10.00" height="10.00"/></g>\n<g fill="#000000"><rect x="70.00" y="60.00" width="10.00" height="10.00"/></g>\n<g fill="#000000"><rect x="80.00" y="60.00" width="10.00" height="10.00"/></g>\n<g fill="#000000"><rect x="100.00" y="60.00" width="10.00" height="10.00"/></g>\n<g fill="#000000"><rect x="120.00" y="60.00" width="10.00" height="10.00"/></g>\n<g fill="#000000"><rect x="130.00" y="60.00" width="10.00" height="10.00"/></g>\n<g fill="#000000"><rect x="140.00" y="60.00" width="10.00" height="10.00"/></g>\n<g fill="#000000"><rect x="150.00" y="60.00" width="10.00" height="10.00"/></g>\n<g fill="#000000"><rect x="160.00" y="60.00" width="10.00" height="10.00"/></g>\n<g fill="#000000"><rect x="180.00" y="60.00" width="10.00" height="10.00"/></g>\n<g fill="#000000"><rect x="220.00" y="60.00" width="10.00" height="10.00"/></g>\n<g fill="#000000"><rect x="230.00" y="60.00" width="10.00" height="10.00"/></g>\n<g fill="#000000"><rect x="240.00" y="60.00" width="10.00" height="10.00"/></g>\n<g fill="#000000"><rect x="280.00" y="60.00" width="10.00" height="10.00"/></g>\n<g fill="#000000"><rect x="300.00" y="60.00" width="10.00" height="10.00"/></g>\n<g fill="#000000"><rect x="320.00" y="60.00" width="10.00" height="10.00"/></g>\n<g fill="#000000"><rect x="330.00" y="60.00" width="10.00" height="10.00"/></g>\n<g fill="#000000"><rect x="340.00" y="60.00" width="10.00" height="10.00"/></g>\n<g fill="#000000"><rect x="360.00" y="60.00" width="10.00" height="10.00"/></g>\n<g fill="#000000"><rect x="40.00" y="70.00" width="10.00" height="10.00"/></g>\n<g fill="#000000"><rect x="60.00" y="70.00" width="10.00" height="10.00"/></g>\n<g fill="#000000"><rect x="70.00" y="70.00" width="10.00" height="10.00"/></g>\n<g fill="#000000"><rect x="80.00" y="70.00" width="10.00" height="10.00"/></g>\n<g fill="#000000"><rect x="100.00" y="70.00" width="10.00" height="10.00"/></g>\n<g fill="#000000"><rect x="140.00" y="70.00" width="10.00" height="10.00"/></g>\n<g fill="#000000"><rect x="160.00" y="70.00" width="10.00" height="10.00"/></g>\n<g fill="#000000"><rect x="170.00" y="70.00" width="10.00" height="10.00"/></g>\n<g fill="#000000"><rect x="190.00" y="70.00" width="10.00" height="10.00"/></g>\n<g fill="#000000"><rect x="220.00" y="70.00" width="10.00" height="10.00"/></g>\n<g fill="#000000"><rect x="250.00" y="70.00" width="10.00" height="10.00"/></g>\n<g fill="#000000"><rect x="280.00" y="70.00" width="10.00" height="10.00"/></g>\n<g fill="#000000"><rect x="300.00" y="70.00" width="10.00" height="10.00"/></g>\n<g fill="#000000"><rect x="320.00" y="70.00" width="10.00" height="10.00"/></g>\n<g fill="#000000"><rect x="330.00" y="70.00" width="10.00" height="10.00"/></g>\n<g fill="#000000"><rect x="340.00" y="70.00" width="10.00" height="10.00"/></g>\n<g fill="#000000"><rect x="360.00" y="70.00" width="10.00" height="10.00"/></g>\n<g fill="#000000"><rect x="40.00" y="80.00" width="10.00" height="10.00"/></g>\n<g fill="#000000"><rect x="60.00" y="80.00" width="10.00" height="10.00"/></g>\n<g fill="#000000"><rect x="70.00" y="80.00" width="10.00" height="10.00"/></g>\n<g fill="#000000"><rect x="80.00" y="80.00" width="10.00" height="10.00"/></g>\n<g fill="#000000"><rect x="100.00" y="80.00" width="10.00" height="10.00"/></g>\n<g fill="#000000"><rect x="160.00" y="80.00" width="10.00" height="10.00"/></g>\n<g fill="#000000"><rect x="180.00" y="80.00" width="10.00" height="10.00"/></g>\n<g fill="#000000"><rect x="190.00" y="80.00" width="10.00" height="10.00"/></g>\n<g fill="#000000"><rect x="200.00" y="80.00" width="10.00" height="10.00"/></g>\n<g fill="#000000"><rect x="210.00" y="80.00" width="10.00" height="10.00"/></g>\n<g fill="#000000"><rect x="220.00" y="80.00" width="10.00" height="10.00"/></g>\n<g fill="#000000"><rect x="260.00" y="80.00" width="10.00" height="10.00"/></g>\n<g fill="#000000"><rect x="270.00" y="80.00" width="10.00" height="10.00"/></g>\n<g fill="#000000"><rect x="280.00" y="80.00" width="10.00" height="10.00"/></g>\n<g fill="#000000"><rect x="300.00" y="80.00" width="10.00" height="10.00"/></g>\n<g fill="#000000"><rect x="320.00" y="80.00" width="10.00" height="10.00"/></g>\n<g fill="#000000"><rect x="330.00" y="80.00" width="10.00" height="10.00"/></g>\n<g fill="#000000"><rect x="340.00" y="80.00" width="10.00" height="10.00"/></g>\n<g fill="#000000"><rect x="360.00" y="80.00" width="10.00" height="10.00"/></g>\n<g fill="#000000"><rect x="40.00" y="90.00" width="10.00" height="10.00"/></g>\n<g fill="#000000"><rect x="100.00" y="90.00" width="10.00" height="10.00"/></g>\n<g fill="#000000"><rect x="140.00" y="90.00" width="10.00" height="10.00"/></g>\n<g fill="#000000"><rect x="150.00" y="90.00" width="10.00" height="10.00"/></g>\n<g fill="#000000"><rect x="160.00" y="90.00" width="10.00" height="10.00"/></g>\n<g fill="#000000"><rect x="190.00" y="90.00" width="10.00" height="10.00"/></g>\n<g fill="#000000"><rect x="250.00" y="90.00" width="10.00" height="10.00"/></g>\n<g fill="#000000"><rect x="260.00" y="90.00" width="10.00" height="10.00"/></g>\n<g fill="#000000"><rect x="270.00" y="90.00" width="10.00" height="10.00"/></g>\n<g fill="#000000"><rect x="300.00" y="90.00" width="10.00" height="10.00"/></g>\n<g fill="#000000"><rect x="360.00" y="90.00" width="10.00" height="10.00"/></g>\n<g fill="#000000"><rect x="40.00" y="100.00" width="10.00" height="10.00"/></g>\n<g fill="#000000"><rect x="50.00" y="100.00" width="10.00" height="10.00"/></g>\n<g fill="#000000"><rect x="60.00" y="100.00" width="10.00" height="10.00"/></g>\n<g fill="#000000"><rect x="70.00" y="100.00" width="10.00" height="10.00"/></g>\n<g fill="#000000"><rect x="80.00" y="100.00" width="10.00" height="10.00"/></g>\n<g fill="#000000"><rect x="90.00" y="100.00" width="10.00" height="10.00"/></g>\n<g fill="#000000"><rect x="100.00" y="100.00" width="10.00" height="10.00"/></g>\n<g fill="#000000"><rect x="120.00" y="100.00" width="10.00" height="10.00"/></g>\n<g fill="#000000"><rect x="140.00" y="100.00" width="10.00" height="10.00"/></g>\n<g fill="#000000"><rect x="160.00" y="100.00" width="10.00" height="10.00"/></g>\n<g fill="#000000"><rect x="180.00" y="100.00" width="10.00" height="10.00"/></g>\n<g fill="#000000"><rect x="200.00" y="100.00" width="10.00" height="10.00"/></g>\n<g fill="#000000"><rect x="220.00" y="100.00" width="10.00" height="10.00"/></g>\n<g fill="#000000"><rect x="240.00" y="100.00" width="10.00" height="10.00"/></g>\n<g fill="#000000"><rect x="260.00" y="100.00" width="10.00" height="10.00"/></g>\n<g fill="#000000"><rect x="280.00" y="100.00" width="10.00" height="10.00"/></g>\n<g fill="#000000"><rect x="300.00" y="100.00" width="10.00" height="10.00"/></g>\n<g fill="#000000"><rect x="310.00" y="100.00" width="10.00" height="10.00"/></g>\n<g fill="#000000"><rect x="320.00" y="100.00" width="10.00" height="10.00"/></g>\n<g fill="#000000"><rect x="330.00" y="100.00" width="10.00" height="10.00"/></g>\n<g fill="#000000"><rect x="340.00" y="100.00" width="10.00" height="10.00"/></g>\n<g fill="#000000"><rect x="350.00" y="100.00" width="10.00" height="10.00"/></g>\n<g fill="#000000"><rect x="360.00" y="100.00" width="10.00" height="10.00"/></g>\n<g fill="#000000"><rect x="150.00" y="110.00" width="10.00" height="10.00"/></g>\n<g fill="#000000"><rect x="170.00" y="110.00" width="10.00" height="10.00"/></g>\n<g fill="#000000"><rect x="200.00" y="110.00" width="10.00" height="10.00"/></g>\n<g fill="#000000"><rect x="210.00" y="110.00" width="10.00" height="10.00"/></g>\n<g fill="#000000"><rect x="220.00" y="110.00" width="10.00" height="10.00"/></g>\n<g fill="#000000"><rect x="230.00" y="110.00" width="10.00" height="10.00"/></g>\n<g fill="#000000"><rect x="280.00" y="110.00" width="10.00" height="10.00"/></g>\n<g fill="#000000"><rect x="50.00" y="120.00" width="10.00" height="10.00"/></g>\n<g fill="#000000"><rect x="60.00" y="120.00" width="10.00" height="10.00"/></g>\n<g fill="#000000"><rect x="70.00" y="120.00" width="10.00" height="10.00"/></g>\n<g fill="#000000"><rect x="90.00" y="120.00" width="10.00" height="10.00"/></g>\n<g fill="#000000"><rect x="100.00" y="120.00" width="10.00" height="10.00"/></g>\n<g fill="#000000"><rect x="140.00" y="120.00" width="10.00" height="10.00"/></g>\n<g fill="#000000"><rect x="160.00" y="120.00" width="10.00" height="10.00"/></g>\n<g fill="#000000"><rect x="190.00" y="120.00" width="10.00" height="10.00"/></g>\n<g fill="#000000"><rect x="200.00" y="120.00" width="10.00" height="10.00"/></g>\n<g fill="#000000"><rect x="210.00" y="120.00" width="10.00" height="10.00"/></g>\n<g fill="#000000"><rect x="220.00" y="120.00" width="10.00" height="10.00"/></g>\n<g fill="#000000"><rect x="250.00" y="120.00" width="10.00" height="10.00"/></g>\n<g fill="#000000"><rect x="260.00" y="120.00" width="10.00" height="10.00"/></g>\n<g fill="#000000"><rect x="270.00" y="120.00" width="10.00" height="10.00"/></g>\n<g fill="#000000"><rect x="280.00" y="120.00" width="10.00" height="10.00"/></g>\n<g fill="#000000"><rect x="340.00" y="120.00" width="10.00" height="10.00"/></g>\n<g fill="#000000"><rect x="350.00" y="120.00" width="10.00" height="10.00"/></g>\n<g fill="#000000"><rect x="50.00" y="130.00" width="10.00" height="10.00"/></g>\n<g fill="#000000"><rect x="60.00" y="130.00" width="10.00" height="10.00"/></g>\n<g fill="#000000"><rect x="70.00" y="130.00" width="10.00" height="10.00"/></g>\n<g fill="#000000"><rect x="110.00" y="130.00" width="10.00" height="10.00"/></g>\n<g fill="#000000"><rect x="150.00" y="130.00" width="10.00" height="10.00"/></g>\n<g fill="#000000"><rect x="170.00" y="130.00" width="10.00" height="10.00"/></g>\n<g fill="#000000"><rect x="200.00" y="130.00" width="10.00" height="10.00"/></g>\n<g fill="#000000"><rect x="210.00" y="130.00" width="10.00" height="10.00"/></g>\n<g fill="#000000"><rect x="220.00" y="130.00" width="10.00" height="10.00"/></g>\n<g fill="#000000"><rect x="230.00" y="130.00" width="10.00" height="10.00"/></g>\n<g fill="#000000"><rect x="240.00" y="130.00" width="10.00" height="10.00"/></g>\n<g fill="#000000"><rect x="270.00" y="130.00" width="10.00" height="10.00"/></g>\n<g fill="#000000"><rect x="300.00" y="130.00" width="10.00" height="10.00"/></g>\n<g fill="#000000"><rect x="310.00" y="130.00" width="10.00" height="10.00"/></g>\n<g fill="#000000"><rect x="330.00" y="130.00" width="10.00" height="10.00"/></g>\n<g fill="#000000"><rect x="340.00" y="130.00" width="10.00" height="10.00"/></g>\n<g fill="#000000"><rect x="360.00" y="130.00" width="10.00" height="10.00"/></g>\n<g fill="#000000"><rect x="60.00" y="140.00" width="10.00" height="10.00"/></g>\n<g fill="#000000"><rect x="100.00" y="140.00" width="10.00" height="10.00"/></g>\n<g fill="#000000"><rect x="110.00" y="140.00" width="10.00" height="10.00"/></g>\n<g fill="#000000"><rect x="140.00" y="140.00" width="10.00" height="10.00"/></g>\n<g fill="#000000"><rect x="200.00" y="140.00" width="10.00" height="10.00"/></g>\n<g fill="#000000"><rect x="220.00" y="140.00" width="10.00" height="10.00"/></g>\n<g fill="#000000"><rect x="250.00" y="140.00" width="10.00" height="10.00"/></g>\n<g fill="#000000"><rect x="260.00" y="140.00" width="10.00" height="10.00"/></g>\n<g fill="#000000"><rect x="270.00" y="140.00" width="10.00" height="10.00"/></g>\n<g fill="#000000"><rect x="300.00" y="140.00" width="10.00" height="10.00"/></g>\n<g fill="#000000"><rect x="310.00" y="140.00" width="10.00" height="10.00"/></g>\n<g fill="#000000"><rect x="320.00" y="140.00" width="10.00" height="10.00"/></g>\n<g fill="#000000"><rect x="330.00" y="140.00" width="10.00" height="10.00"/></g>\n<g fill="#000000"><rect x="360.00" y="140.00" width="10.00" height="10.00"/></g>\n<g fill="#000000"><rect x="40.00" y="150.00" width="10.00" height="10.00"/></g>\n<g fill="#000000"><rect x="60.00" y="150.00" width="10.00" height="10.00"/></g>\n<g fill="#000000"><rect x="80.00" y="150.00" width="10.00" height="10.00"/></g>\n<g fill="#000000"><rect x="90.00" y="150.00" width="10.00" height="10.00"/></g>\n<g fill="#000000"><rect x="110.00" y="150.00" width="10.00" height="10.00"/></g>\n<g fill="#000000"><rect x="140.00" y="150.00" width="10.00" height="10.00"/></g>\n<g fill="#000000"><rect x="170.00" y="150.00" width="10.00" height="10.00"/></g>\n<g fill="#000000"><rect x="200.00" y="150.00" width="10.00" height="10.00"/></g>\n<g fill="#000000"><rect x="210.00" y="150.00" width="10.00" height="10.00"/></g>\n<g fill="#000000"><rect x="230.00" y="150.00" width="10.00" height="10.00"/></g>\n<g fill="#000000"><rect x="250.00" y="150.00" width="10.00" height="10.00"/></g>\n<g fill="#000000"><rect x="260.00" y="150.00" width="10.00" height="10.00"/></g>\n<g fill="#000000"><rect x="290.00" y="150.00" width="10.00" height="10.00"/></g>\n<g fill="#000000"><rect x="300.00" y="150.00" width="10.00" height="10.00"/></g>\n<g fill="#000000"><rect x="310.00" y="150.00" width="10.00" height="10.00"/></g>\n<g fill="#000000"><rect x="330.00" y="150.00" width="10.00" height="10.00"/></g>\n<g fill="#000000"><rect x="350.00" y="150.00" width="10.00" height="10.00"/></g>\n<g fill="#000000"><rect x="360.00" y="150.00" width="10.00" height="10.00"/></g>\n<g fill="#000000"><rect x="50.00" y="160.00" width="10.00" height="10.00"/></g>\n<g fill="#000000"><rect x="70.00" y="160.00" width="10.00" height="10.00"/></g>\n<g fill="#000000"><rect x="80.00" y="160.00" width="10.00" height="10.00"/></g>\n<g fill="#000000"><rect x="90.00" y="160.00" width="10.00" height="10.00"/></g>\n<g fill="#000000"><rect x="100.00" y="160.00" width="10.00" height="10.00"/></g>\n<g fill="#000000"><rect x="110.00" y="160.00" width="10.00" height="10.00"/></g>\n<g fill="#000000"><rect x="120.00" y="160.00" width="10.00" height="10.00"/></g>\n<g fill="#000000"><rect x="130.00" y="160.00" width="10.00" height="10.00"/></g>\n<g fill="#000000"><rect x="190.00" y="160.00" width="10.00" height="10.00"/></g>\n<g fill="#000000"><rect x="200.00" y="160.00" width="10.00" height="10.00"/></g>\n<g fill="#000000"><rect x="230.00" y="160.00" width="10.00" height="10.00"/></g>\n<g fill="#000000"><rect x="240.00" y="160.00" width="10.00" height="10.00"/></g>\n<g fill="#000000"><rect x="250.00" y="160.00" width="10.00" height="10.00"/></g>\n<g fill="#000000"><rect x="260.00" y="160.00" width="10.00" height="10.00"/></g>\n<g fill="#000000"><rect x="270.00" y="160.00" width="10.00" height="10.00"/></g>\n<g fill="#000000"><rect x="280.00" y="160.00" width="10.00" height="10.00"/></g>\n<g fill="#000000"><rect x="290.00" y="160.00" width="10.00" height="10.00"/></g>\n<g fill="#000000"><rect x="320.00" y="160.00" width="10.00" height="10.00"/></g>\n<g fill="#000000"><rect x="330.00" y="160.00" width="10.00" height="10.00"/></g>\n<g fill="#000000"><rect x="350.00" y="160.00" width="10.00" height="10.00"/></g>\n<g fill="#000000"><rect x="360.00" y="160.00" width="10.00" height="10.00"/></g>\n<g fill="#000000"><rect x="50.00" y="170.00" width="10.00" height="10.00"/></g>\n<g fill="#000000"><rect x="90.00" y="170.00" width="10.00" height="10.00"/></g>\n<g fill="#000000"><rect x="110.00" y="170.00" width="10.00" height="10.00"/></g>\n<g fill="#000000"><rect x="150.00" y="170.00" width="10.00" height="10.00"/></g>\n<g fill="#000000"><rect x="160.00" y="170.00" width="10.00" height="10.00"/></g>\n<g fill="#000000"><rect x="180.00" y="170.00" width="10.00" height="10.00"/></g>\n<g fill="#000000"><rect x="190.00" y="170.00" width="10.00" height="10.00"/></g>\n<g fill="#000000"><rect x="200.00" y="170.00" width="10.00" height="10.00"/></g>\n<g fill="#000000"><rect x="240.00" y="170.00" width="10.00" height="10.00"/></g>\n<g fill="#000000"><rect x="250.00" y="170.00" width="10.00" height="10.00"/></g>\n<g fill="#000000"><rect x="270.00" y="170.00" width="10.00" height="10.00"/></g>\n<g fill="#000000"><rect x="310.00" y="170.00" width="10.00" height="10.00"/></g>\n<g fill="#000000"><rect x="340.00" y="170.00" width="10.00" height="10.00"/></g>\n<g fill="#000000"><rect x="350.00" y="170.00" width="10.00" height="10.00"/></g>\n<g fill="#000000"><rect x="90.00" y="180.00" width="10.00" height="10.00"/></g>\n<g fill="#000000"><rect x="100.00" y="180.00" width="10.00" height="10.00"/></g>\n<g fill="#000000"><rect x="120.00" y="180.00" width="10.00" height="10.00"/></g>\n<g fill="#000000"><rect x="160.00" y="180.00" width="10.00" height="10.00"/></g>\n<g fill="#000000"><rect x="170.00" y="180.00" width="10.00" height="10.00"/></g>\n<g fill="#000000"><rect x="180.00" y="180.00" width="10.00" height="10.00"/></g>\n<g fill="#000000"><rect x="200.00" y="180.00" width="10.00" height="10.00"/></g>\n<g fill="#000000"><rect x="220.00" y="180.00" width="10.00" height="10.00"/></g>\n<g fill="#000000"><rect x="230.00" y="180.00" width="10.00" height="10.00"/></g>\n<g fill="#000000"><rect x="240.00" y="180.00" width="10.00" height="10.00"/></g>\n<g fill="#000000"><rect x="250.00" y="180.00" width="10.00" height="10.00"/></g>\n<g fill="#000000"><rect x="280.00" y="180.00" width="10.00" height="10.00"/></g>\n<g fill="#000000"><rect x="300.00" y="180.00" width="10.00" height="10.00"/></g>\n<g fill="#000000"><rect x="310.00" y="180.00" width="10.00" height="10.00"/></g>\n<g fill="#000000"><rect x="320.00" y="180.00" width="10.00" height="10.00"/></g>\n<g fill="#000000"><rect x="330.00" y="180.00" width="10.00" height="10.00"/></g>\n<g fill="#000000"><rect x="340.00" y="180.00" width="10.00" height="10.00"/></g>\n<g fill="#000000"><rect x="50.00" y="190.00" width="10.00" height="10.00"/></g>\n<g fill="#000000"><rect x="60.00" y="190.00" width="10.00" height="10.00"/></g>\n<g fill="#000000"><rect x="80.00" y="190.00" width="10.00" height="10.00"/></g>\n<g fill="#000000"><rect x="110.00" y="190.00" width="10.00" height="10.00"/></g>\n<g fill="#000000"><rect x="130.00" y="190.00" width="10.00" height="10.00"/></g>\n<g fill="#000000"><rect x="170.00" y="190.00" width="10.00" height="10.00"/></g>\n<g fill="#000000"><rect x="180.00" y="190.00" width="10.00" height="10.00"/></g>\n<g fill="#000000"><rect x="200.00" y="190.00" width="10.00" height="10.00"/></g>\n<g fill="#000000"><rect x="220.00" y="190.00" width="10.00" height="10.00"/></g>\n<g fill="#000000"><rect x="250.00" y="190.00" width="10.00" height="10.00"/></g>\n<g fill="#000000"><rect x="290.00" y="190.00" width="10.00" height="10.00"/></g>\n<g fill="#000000"><rect x="300.00" y="190.00" width="10.00" height="10.00"/></g>\n<g fill="#000000"><rect x="310.00" y="190.00" width="10.00" height="10.00"/></g>\n<g fill="#000000"><rect x="330.00" y="190.00" width="10.00" height="10.00"/></g>\n<g fill="#000000"><rect x="340.00" y="190.00" width="10.00" height="10.00"/></g>\n<g fill="#000000"><rect x="40.00" y="200.00" width="10.00" height="10.00"/></g>\n<g fill="#000000"><rect x="60.00" y="200.00" width="10.00" height="10.00"/></g>\n<g fill="#000000"><rect x="70.00" y="200.00" width="10.00" height="10.00"/></g>\n<g fill="#000000"><rect x="80.00" y="200.00" width="10.00" height="10.00"/></g>\n<g fill="#000000"><rect x="100.00" y="200.00" width="10.00" height="10.00"/></g>\n<g fill="#000000"><rect x="120.00" y="200.00" width="10.00" height="10.00"/></g>\n<g fill="#000000"><rect x="130.00" y="200.00" width="10.00" height="10.00"/></g>\n<g fill="#000000"><rect x="150.00" y="200.00" width="10.00" height="10.00"/></g>\n<g fill="#000000"><rect x="170.00" y="200.00" width="10.00" height="10.00"/></g>\n<g fill="#000000"><rect x="180.00" y="200.00" width="10.00" height="10.00"/></g>\n<g fill="#000000"><rect x="190.00" y="200.00" width="10.00" height="10.00"/></g>\n<g fill="#000000"><rect x="200.00" y="200.00" width="10.00" height="10.00"/></g>\n<g fill="#000000"><rect x="210.00" y="200.00" width="10.00" height="10.00"/></g>\n<g fill="#000000"><rect x="220.00" y="200.00" width="10.00" height="10.00"/></g>\n<g fill="#000000"><rect x="250.00" y="200.00" width="10.00" height="10.00"/></g>\n<g fill="#000000"><rect x="260.00" y="200.00" width="10.00" height="10.00"/></g>\n<g fill="#000000"><rect x="270.00" y="200.00" width="10.00" height="10.00"/></g>\n<g fill="#000000"><rect x="290.00" y="200.00" width="10.00" height="10.00"/></g>\n<g fill="#000000"><rect x="300.00" y="200.00" width="10.00" height="10.00"/></g>\n<g fill="#000000"><rect x="320.00" y="200.00" width="10.00" height="10.00"/></g>\n<g fill="#000000"><rect x="330.00" y="200.00" width="10.00" height="10.00"/></g>\n<g fill="#000000"><rect x="340.00" y="200.00" width="10.00" height="10.00"/></g>\n<g fill="#000000"><rect x="50.00" y="210.00" width="10.00" height="10.00"/></g>\n<g fill="#000000"><rect x="70.00" y="210.00" width="10.00" height="10.00"/></g>\n<g fill="#000000"><rect x="90.00" y="210.00" width="10.00" height="10.00"/></g>\n<g fill="#000000"><rect x="120.00" y="210.00" width="10.00" height="10.00"/></g>\n<g fill="#000000"><rect x="130.00" y="210.00" width="10.00" height="10.00"/></g>\n<g fill="#000000"><rect x="140.00" y="210.00" width="10.00" height="10.00"/></g>\n<g fill="#000000"><rect x="160.00" y="210.00" width="10.00" height="10.00"/></g>\n<g fill="#000000"><rect x="180.00" y="210.00" width="10.00" height="10.00"/></g>\n<g fill="#000000"><rect x="190.00" y="210.00" width="10.00" height="10.00"/></g>\n<g fill="#000000"><rect x="200.00" y="210.00" width="10.00" height="10.00"/></g>\n<g fill="#000000"><rect x="240.00" y="210.00" width="10.00" height="10.00"/></g>\n<g fill="#000000"><rect x="260.00" y="210.00" width="10.00" height="10.00"/></g>\n<g fill="#000000"><rect x="270.00" y="210.00" width="10.00" height="10.00"/></g>\n<g fill="#000000"><rect x="280.00" y="210.00" width="10.00" height="10.00"/></g>\n<g fill="#000000"><rect x="290.00" y="210.00" width="10.00" height="10.00"/></g>\n<g fill="#000000"><rect x="300.00" y="210.00" width="10.00" height="10.00"/></g>\n<g fill="#000000"><rect x="320.00" y="210.00" width="10.00" height="10.00"/></g>\n<g fill="#000000"><rect x="330.00" y="210.00" width="10.00" height="10.00"/></g>\n<g fill="#000000"><rect x="350.00" y="210.00" width="10.00" height="10.00"/></g>\n<g fill="#000000"><rect x="360.00" y="210.00" width="10.00" height="10.00"/></g>\n<g fill="#000000"><rect x="40.00" y="220.00" width="10.00" height="10.00"/></g>\n<g fill="#000000"><rect x="50.00" y="220.00" width="10.00" height="10.00"/></g>\n<g fill="#000000"><rect x="80.00" y="220.00" width="10.00" height="10.00"/></g>\n<g fill="#000000"><rect x="100.00" y="220.00" width="10.00" height="10.00"/></g>\n<g fill="#000000"><rect x="130.00" y="220.00" width="10.00" height="10.00"/></g>\n<g fill="#000000"><rect x="180.00" y="220.00" width="10.00" height="10.00"/></g>\n<g fill="#000000"><rect x="190.00" y="220.00" width="10.00" height="10.00"/></g>\n<g fill="#000000"><rect x="220.00" y="220.00" width="10.00" height="10.00"/></g>\n<g fill="#000000"><rect x="240.00" y="220.00" width="10.00" height="10.00"/></g>\n<g fill="#000000"><rect x="250.00" y="220.00" width="10.00" height="10.00"/></g>\n<g fill="#000000"><rect x="280.00" y="220.00" width="10.00" height="10.00"/></g>\n<g fill="#000000"><rect x="310.00" y="220.00" width="10.00" height="10.00"/></g>\n<g fill="#000000"><rect x="320.00" y="220.00" width="10.00" height="10.00"/></g>\n<g fill="#000000"><rect x="340.00" y="220.00" width="10.00" height="10.00"/></g>\n<g fill="#000000"><rect x="350.00" y="220.00" width="10.00" height="10.00"/></g>\n<g fill="#000000"><rect x="50.00" y="230.00" width="10.00" height="10.00"/></g>\n<g fill="#000000"><rect x="70.00" y="230.00" width="10.00" height="10.00"/></g>\n<g fill="#000000"><rect x="80.00" y="230.00" width="10.00" height="10.00"/></g>\n<g fill="#000000"><rect x="110.00" y="230.00" width="10.00" height="10.00"/></g>\n<g fill="#000000"><rect x="130.00" y="230.00" width="10.00" height="10.00"/></g>\n<g fill="#000000"><rect x="140.00" y="230.00" width="10.00" height="10.00"/></g>\n<g fill="#000000"><rect x="170.00" y="230.00" width="10.00" height="10.00"/></g>\n<g fill="#000000"><rect x="180.00" y="230.00" width="10.00" height="10.00"/></g>\n<g fill="#000000"><rect x="190.00" y="230.00" width="10.00" height="10.00"/></g>\n<g fill="#000000"><rect x="200.00" y="230.00" width="10.00" height="10.00"/></g>\n<g fill="#000000"><rect x="210.00" y="230.00" width="10.00" height="10.00"/></g>\n<g fill="#000000"><rect x="230.00" y="230.00" width="10.00" height="10.00"/></g>\n<g fill="#000000"><rect x="260.00" y="230.00" width="10.00" height="10.00"/></g>\n<g fill="#000000"><rect x="270.00" y="230.00" width="10.00" height="10.00"/></g>\n<g fill="#000000"><rect x="280.00" y="230.00" width="10.00" height="10.00"/></g>\n<g fill="#000000"><rect x="290.00" y="230.00" width="10.00" height="10.00"/></g>\n<g fill="#000000"><rect x="320.00" y="230.00" width="10.00" height="10.00"/></g>\n<g fill="#000000"><rect x="350.00" y="230.00" width="10.00" height="10.00"/></g>\n<g fill="#000000"><rect x="50.00" y="240.00" width="10.00" height="10.00"/></g>\n<g fill="#000000"><rect x="70.00" y="240.00" width="10.00" height="10.00"/></g>\n<g fill="#000000"><rect x="100.00" y="240.00" width="10.00" height="10.00"/></g>\n<g fill="#000000"><rect x="120.00" y="240.00" width="10.00" height="10.00"/></g>\n<g fill="#000000"><rect x="140.00" y="240.00" width="10.00" height="10.00"/></g>\n<g fill="#000000"><rect x="150.00" y="240.00" width="10.00" height="10.00"/></g>\n<g fill="#000000"><rect x="160.00" y="240.00" width="10.00" height="10.00"/></g>\n<g fill="#000000"><rect x="170.00" y="240.00" width="10.00" height="10.00"/></g>\n<g fill="#000000"><rect x="190.00" y="240.00" width="10.00" height="10.00"/></g>\n<g fill="#000000"><rect x="200.00" y="240.00" width="10.00" height="10.00"/></g>\n<g fill="#000000"><rect x="260.00" y="240.00" width="10.00" height="10.00"/></g>\n<g fill="#000000"><rect x="310.00" y="240.00" width="10.00" height="10.00"/></g>\n<g fill="#000000"><rect x="330.00" y="240.00" width="10.00" height="10.00"/></g>\n<g fill="#000000"><rect x="340.00" y="240.00" width="10.00" height="10.00"/></g>\n<g fill="#000000"><rect x="40.00" y="250.00" width="10.00" height="10.00"/></g>\n<g fill="#000000"><rect x="50.00" y="250.00" width="10.00" height="10.00"/></g>\n<g fill="#000000"><rect x="130.00" y="250.00" width="10.00" height="10.00"/></g>\n<g fill="#000000"><rect x="160.00" y="250.00" width="10.00" height="10.00"/></g>\n<g fill="#000000"><rect x="190.00" y="250.00" width="10.00" height="10.00"/></g>\n<g fill="#000000"><rect x="200.00" y="250.00" width="10.00" height="10.00"/></g>\n<g fill="#000000"><rect x="210.00" y="250.00" width="10.00" height="10.00"/></g>\n<g fill="#000000"><rect x="220.00" y="250.00" width="10.00" height="10.00"/></g>\n<g fill="#000000"><rect x="240.00" y="250.00" width="10.00" height="10.00"/></g>\n<g fill="#000000"><rect x="250.00" y="250.00" width="10.00" height="10.00"/></g>\n<g fill="#000000"><rect x="260.00" y="250.00" width="10.00" height="10.00"/></g>\n<g fill="#000000"><rect x="270.00" y="250.00" width="10.00" height="10.00"/></g>\n<g fill="#000000"><rect x="300.00" y="250.00" width="10.00" height="10.00"/></g>\n<g fill="#000000"><rect x="330.00" y="250.00" width="10.00" height="10.00"/></g>\n<g fill="#000000"><rect x="340.00" y="250.00" width="10.00" height="10.00"/></g>\n<g fill="#000000"><rect x="360.00" y="250.00" width="10.00" height="10.00"/></g>\n<g fill="#000000"><rect x="80.00" y="260.00" width="10.00" height="10.00"/></g>\n<g fill="#000000"><rect x="100.00" y="260.00" width="10.00" height="10.00"/></g>\n<g fill="#000000"><rect x="110.00" y="260.00" width="10.00" height="10.00"/></g>\n<g fill="#000000"><rect x="140.00" y="260.00" width="10.00" height="10.00"/></g>\n<g fill="#000000"><rect x="160.00" y="260.00" width="10.00" height="10.00"/></g>\n<g fill="#000000"><rect x="170.00" y="260.00" width="10.00" height="10.00"/></g>\n<g fill="#000000"><rect x="180.00" y="260.00" width="10.00" height="10.00"/></g>\n<g fill="#000000"><rect x="190.00" y="260.00" width="10.00" height="10.00"/></g>\n<g fill="#000000"><rect x="230.00" y="260.00" width="10.00" height="10.00"/></g>\n<g fill="#000000"><rect x="240.00" y="260.00" width="10.00" height="10.00"/></g>\n<g fill="#000000"><rect x="250.00" y="260.00" width="10.00" height="10.00"/></g>\n<g fill="#000000"><rect x="270.00" y="260.00" width="10.00" height="10.00"/></g>\n<g fill="#000000"><rect x="290.00" y="260.00" width="10.00" height="10.00"/></g>\n<g fill="#000000"><rect x="300.00" y="260.00" width="10.00" height="10.00"/></g>\n<g fill="#000000"><rect x="310.00" y="260.00" width="10.00" height="10.00"/></g>\n<g fill="#000000"><rect x="340.00" y="260.00" width="10.00" height="10.00"/></g>\n<g fill="#000000"><rect x="350.00" y="260.00" width="10.00" height="10.00"/></g>\n<g fill="#000000"><rect x="360.00" y="260.00" width="10.00" height="10.00"/></g>\n<g fill="#000000"><rect x="50.00" y="270.00" width="10.00" height="10.00"/></g>\n<g fill="#000000"><rect x="70.00" y="270.00" width="10.00" height="10.00"/></g>\n<g fill="#000000"><rect x="90.00" y="270.00" width="10.00" height="10.00"/></g>\n<g fill="#000000"><rect x="140.00" y="270.00" width="10.00" height="10.00"/></g>\n<g fill="#000000"><rect x="180.00" y="270.00" width="10.00" height="10.00"/></g>\n<g fill="#000000"><rect x="190.00" y="270.00" width="10.00" height="10.00"/></g>\n<g fill="#000000"><rect x="200.00" y="270.00" width="10.00" height="10.00"/></g>\n<g fill="#000000"><rect x="210.00" y="270.00" width="10.00" height="10.00"/></g>\n<g fill="#000000"><rect x="220.00" y="270.00" width="10.00" height="10.00"/></g>\n<g fill="#000000"><rect x="240.00" y="270.00" width="10.00" height="10.00"/></g>\n<g fill="#000000"><rect x="280.00" y="270.00" width="10.00" height="10.00"/></g>\n<g fill="#000000"><rect x="300.00" y="270.00" width="10.00" height="10.00"/></g>\n<g fill="#000000"><rect x="310.00" y="270.00" width="10.00" height="10.00"/></g>\n<g fill="#000000"><rect x="330.00" y="270.00" width="10.00" height="10.00"/></g>\n<g fill="#000000"><rect x="360.00" y="270.00" width="10.00" height="10.00"/></g>\n<g fill="#000000"><rect x="40.00" y="280.00" width="10.00" height="10.00"/></g>\n<g fill="#000000"><rect x="60.00" y="280.00" width="10.00" height="10.00"/></g>\n<g fill="#000000"><rect x="100.00" y="280.00" width="10.00" height="10.00"/></g>\n<g fill="#000000"><rect x="110.00" y="280.00" width="10.00" height="10.00"/></g>\n<g fill="#000000"><rect x="120.00" y="280.00" width="10.00" height="10.00"/></g>\n<g fill="#000000"><rect x="210.00" y="280.00" width="10.00" height="10.00"/></g>\n<g fill="#000000"><rect x="220.00" y="280.00" width="10.00" height="10.00"/></g>\n<g fill="#000000"><rect x="230.00" y="280.00" width="10.00" height="10.00"/></g>\n<g fill="#000000"><rect x="260.00" y="280.00" width="10.00" height="10.00"/></g>\n<g fill="#000000"><rect x="280.00" y="280.00" width="10.00" height="10.00"/></g>\n<g fill="#000000"><rect x="290.00" y="280.00" width="10.00" height="10.00"/></g>\n<g fill="#000000"><rect x="300.00" y="280.00" width="10.00" height="10.00"/></g>\n<g fill="#000000"><rect x="310.00" y="280.00" width="10.00" height="10.00"/></g>\n<g fill="#000000"><rect x="320.00" y="280.00" width="10.00" height="10.00"/></g>\n<g fill="#000000"><rect x="120.00" y="290.00" width="10.00" height="10.00"/></g>\n<g fill="#000000"><rect x="140.00" y="290.00" width="10.00" height="10.00"/></g>\n<g fill="#000000"><rect x="160.00" y="290.00" width="10.00" height="10.00"/></g>\n<g fill="#000000"><rect x="170.00" y="290.00" width="10.00" height="10.00"/></g>\n<g fill="#000000"><rect x="180.00" y="290.00" width="10.00" height="10.00"/></g>\n<g fill="#000000"><rect x="200.00" y="290.00" width="10.00" height="10.00"/></g>\n<g fill="#000000"><rect x="230.00" y="290.00" width="10.00" height="10.00"/></g>\n<g fill="#000000"><rect x="240.00" y="290.00" width="10.00" height="10.00"/></g>\n<g fill="#000000"><rect x="250.00" y="290.00" width="10.00" height="10.00"/></g>\n<g fill="#000000"><rect x="280.00" y="290.00" width="10.00" height="10.00"/></g>\n<g fill="#000000"><rect x="320.00" y="290.00" width="10.00" height="10.00"/></g>\n<g fill="#000000"><rect x="330.00" y="290.00" width="10.00" height="10.00"/></g>\n<g fill="#000000"><rect x="350.00" y="290.00" width="10.00" height="10.00"/></g>\n<g fill="#000000"><rect x="40.00" y="300.00" width="10.00" height="10.00"/></g>\n<g fill="#000000"><rect x="50.00" y="300.00" width="10.00" height="10.00"/></g>\n<g fill="#000000"><rect x="60.00" y="300.00" width="10.00" height="10.00"/></g>\n<g fill="#000000"><rect x="70.00" y="300.00" width="10.00" height="10.00"/></g>\n<g fill="#000000"><rect x="80.00" y="300.00" width="10.00" height="10.00"/></g>\n<g fill="#000000"><rect x="90.00" y="300.00" width="10.00" height="10.00"/></g>\n<g fill="#000000"><rect x="100.00" y="300.00" width="10.00" height="10.00"/></g>\n<g fill="#000000"><rect x="190.00" y="300.00" width="10.00" height="10.00"/></g>\n<g fill="#000000"><rect x="200.00" y="300.00" width="10.00" height="10.00"/></g>\n<g fill="#000000"><rect x="220.00" y="300.00" width="10.00" height="10.00"/></g>\n<g fill="#000000"><rect x="230.00" y="300.00" width="10.00" height="10.00"/></g>\n<g fill="#000000"><rect x="240.00" y="300.00" width="10.00" height="10.00"/></g>\n<g fill="#000000"><rect x="250.00" y="300.00" width="10.00" height="10.00"/></g>\n<g fill="#000000"><rect x="270.00" y="300.00" width="10.00" height="10.00"/></g>\n<g fill="#000000"><rect x="280.00" y="300.00" width="10.00" height="10.00"/></g>\n<g fill="#000000"><rect x="300.00" y="300.00" width="10.00" height="10.00"/></g>\n<g fill="#000000"><rect x="320.00" y="300.00" width="10.00" height="10.00"/></g>\n<g fill="#000000"><rect x="40.00" y="310.00" width="10.00" height="10.00"/></g>\n<g fill="#000000"><rect x="100.00" y="310.00" width="10.00" height="10.00"/></g>\n<g fill="#000000"><rect x="120.00" y="310.00" width="10.00" height="10.00"/></g>\n<g fill="#000000"><rect x="170.00" y="310.00" width="10.00" height="10.00"/></g>\n<g fill="#000000"><rect x="210.00" y="310.00" width="10.00" height="10.00"/></g>\n<g fill="#000000"><rect x="240.00" y="310.00" width="10.00" height="10.00"/></g>\n<g fill="#000000"><rect x="270.00" y="310.00" width="10.00" height="10.00"/></g>\n<g fill="#000000"><rect x="280.00" y="310.00" width="10.00" height="10.00"/></g>\n<g fill="#000000"><rect x="320.00" y="310.00" width="10.00" height="10.00"/></g>\n<g fill="#000000"><rect x="330.00" y="310.00" width="10.00" height="10.00"/></g>\n<g fill="#000000"><rect x="340.00" y="310.00" width="10.00" height="10.00"/></g>\n<g fill="#000000"><rect x="350.00" y="310.00" width="10.00" height="10.00"/></g>\n<g fill="#000000"><rect x="360.00" y="310.00" width="10.00" height="10.00"/></g>\n<g fill="#000000"><rect x="40.00" y="320.00" width="10.00" height="10.00"/></g>\n<g fill="#000000"><rect x="60.00" y="320.00" width="10.00" height="10.00"/></g>\n<g fill="#000000"><rect x="70.00" y="320.00" width="10.00" height="10.00"/></g>\n<g fill="#000000"><rect x="80.00" y="320.00" width="10.00" height="10.00"/></g>\n<g fill="#000000"><rect x="100.00" y="320.00" width="10.00" height="10.00"/></g>\n<g fill="#000000"><rect x="150.00" y="320.00" width="10.00" height="10.00"/></g>\n<g fill="#000000"><rect x="160.00" y="320.00" width="10.00" height="10.00"/></g>\n<g fill="#000000"><rect x="170.00" y="320.00" width="10.00" height="10.00"/></g>\n<g fill="#000000"><rect x="190.00" y="320.00" width="10.00" height="10.00"/></g>\n<g fill="#000000"><rect x="230.00" y="320.00" width="10.00" height="10.00"/></g>\n<g fill="#000000"><rect x="260.00" y="320.00" width="10.00" height="10.00"/></g>\n<g fill="#000000"><rect x="270.00" y="320.00" width="10.00" height="10.00"/></g>\n<g fill="#000000"><rect x="280.00" y="320.00" width="10.00" height="10.00"/></g>\n<g fill="#000000"><rect x="290.00" y="320.00" width="10.00" height="10.00"/></g>\n<g fill="#000000"><rect x="300.00" y="320.00" width="10.00" height="10.00"/></g>\n<g fill="#000000"><rect x="310.00" y="320.00" width="10.00" height="10.00"/></g>\n<g fill="#000000"><rect x="320.00" y="320.00" width="10.00" height="10.00"/></g>\n<g fill="#000000"><rect x="340.00" y="320.00" width="10.00" height="10.00"/></g>\n<g fill="#000000"><rect x="350.00" y="320.00" width="10.00" height="10.00"/></g>\n<g fill="#000000"><rect x="40.00" y="330.00" width="10.00" height="10.00"/></g>\n<g fill="#000000"><rect x="60.00" y="330.00" width="10.00" height="10.00"/></g>\n<g fill="#000000"><rect x="70.00" y="330.00" width="10.00" height="10.00"/></g>\n<g fill="#000000"><rect x="80.00" y="330.00" width="10.00" height="10.00"/></g>\n<g fill="#000000"><rect x="100.00" y="330.00" width="10.00" height="10.00"/></g>\n<g fill="#000000"><rect x="120.00" y="330.00" width="10.00" height="10.00"/></g>\n<g fill="#000000"><rect x="150.00" y="330.00" width="10.00" height="10.00"/></g>\n<g fill="#000000"><rect x="160.00" y="330.00" width="10.00" height="10.00"/></g>\n<g fill="#000000"><rect x="190.00" y="330.00" width="10.00" height="10.00"/></g>\n<g fill="#000000"><rect x="200.00" y="330.00" width="10.00" height="10.00"/></g>\n<g fill="#000000"><rect x="210.00" y="330.00" width="10.00" height="10.00"/></g>\n<g fill="#000000"><rect x="230.00" y="330.00" width="10.00" height="10.00"/></g>\n<g fill="#000000"><rect x="250.00" y="330.00" width="10.00" height="10.00"/></g>\n<g fill="#000000"><rect x="260.00" y="330.00" width="10.00" height="10.00"/></g>\n<g fill="#000000"><rect x="270.00" y="330.00" width="10.00" height="10.00"/></g>\n<g fill="#000000"><rect x="310.00" y="330.00" width="10.00" height="10.00"/></g>\n<g fill="#000000"><rect x="330.00" y="330.00" width="10.00" height="10.00"/></g>\n<g fill="#000000"><rect x="340.00" y="330.00" width="10.00" height="10.00"/></g>\n<g fill="#000000"><rect x="350.00" y="330.00" width="10.00" height="10.00"/></g>\n<g fill="#000000"><rect x="360.00" y="330.00" width="10.00" height="10.00"/></g>\n<g fill="#000000"><rect x="40.00" y="340.00" width="10.00" height="10.00"/></g>\n<g fill="#000000"><rect x="60.00" y="340.00" width="10.00" height="10.00"/></g>\n<g fill="#000000"><rect x="70.00" y="340.00" width="10.00" height="10.00"/></g>\n<g fill="#000000"><rect x="80.00" y="340.00" width="10.00" height="10.00"/></g>\n<g fill="#000000"><rect x="100.00" y="340.00" width="10.00" height="10.00"/></g>\n<g fill="#000000"><rect x="120.00" y="340.00" width="10.00" height="10.00"/></g>\n<g fill="#000000"><rect x="150.00" y="340.00" width="10.00" height="10.00"/></g>\n<g fill="#000000"><rect x="160.00" y="340.00" width="10.00" height="10.00"/></g>\n<g fill="#000000"><rect x="170.00" y="340.00" width="10.00" height="10.00"/></g>\n<g fill="#000000"><rect x="180.00" y="340.00" width="10.00" height="10.00"/></g>\n<g fill="#000000"><rect x="210.00" y="340.00" width="10.00" height="10.00"/></g>\n<g fill="#000000"><rect x="240.00" y="340.00" width="10.00" height="10.00"/></g>\n<g fill="#000000"><rect x="260.00" y="340.00" width="10.00" height="10.00"/></g>\n<g fill="#000000"><rect x="300.00" y="340.00" width="10.00" height="10.00"/></g>\n<g fill="#000000"><rect x="310.00" y="340.00" width="10.00" height="10.00"/></g>\n<g fill="#000000"><rect x="330.00" y="340.00" width="10.00" height="10.00"/></g>\n<g fill="#000000"><rect x="40.00" y="350.00" width="10.00" height="10.00"/></g>\n<g fill="#000000"><rect x="100.00" y="350.00" width="10.00" height="10.00"/></g>\n<g fill="#000000"><rect x="120.00" y="350.00" width="10.00" height="10.00"/></g>\n<g fill="#000000"><rect x="140.00" y="350.00" width="10.00" height="10.00"/></g>\n<g fill="#000000"><rect x="150.00" y="350.00" width="10.00" height="10.00"/></g>\n<g fill="#000000"><rect x="180.00" y="350.00" width="10.00" height="10.00"/></g>\n<g fill="#000000"><rect x="190.00" y="350.00" width="10.00" height="10.00"/></g>\n<g fill="#000000"><rect x="200.00" y="350.00" width="10.00" height="10.00"/></g>\n<g fill="#000000"><rect x="220.00" y="350.00" width="10.00" height="10.00"/></g>\n<g fill="#000000"><rect x="240.00" y="350.00" width="10.00" height="10.00"/></g>\n<g fill="#000000"><rect x="260.00" y="350.00" width="10.00" height="10.00"/></g>\n<g fill="#000000"><rect x="270.00" y="350.00" width="10.00" height="10.00"/></g>\n<g fill="#000000"><rect x="280.00" y="350.00" width="10.00" height="10.00"/></g>\n<g fill="#000000"><rect x="290.00" y="350.00" width="10.00" height="10.00"/></g>\n<g fill="#000000"><rect x="310.00" y="350.00" width="10.00" height="10.00"/></g>\n<g fill="#000000"><rect x="320.00" y="350.00" width="10.00" height="10.00"/></g>\n<g fill="#000000"><rect x="330.00" y="350.00" width="10.00" height="10.00"/></g>\n<g fill="#000000"><rect x="360.00" y="350.00" width="10.00" height="10.00"/></g>\n<g fill="#000000"><rect x="40.00" y="360.00" width="10.00" height="10.00"/></g>\n<g fill="#000000"><rect x="50.00" y="360.00" width="10.00" height="10.00"/></g>\n<g fill="#000000"><rect x="60.00" y="360.00" width="10.00" height="10.00"/></g>\n<g fill="#000000"><rect x="70.00" y="360.00" width="10.00" height="10.00"/></g>\n<g fill="#000000"><rect x="80.00" y="360.00" width="10.00" height="10.00"/></g>\n<g fill="#000000"><rect x="90.00" y="360.00" width="10.00" height="10.00"/></g>\n<g fill="#000000"><rect x="100.00" y="360.00" width="10.00" height="10.00"/></g>\n<g fill="#000000"><rect x="150.00" y="360.00" width="10.00" height="10.00"/></g>\n<g fill="#000000"><rect x="160.00" y="360.00" width="10.00" height="10.00"/></g>\n<g fill="#000000"><rect x="170.00" y="360.00" width="10.00" height="10.00"/></g>\n<g fill="#000000"><rect x="180.00" y="360.00" width="10.00" height="10.00"/></g>\n<g fill="#000000"><rect x="230.00" y="360.00" width="10.00" height="10.00"/></g>\n<g fill="#000000"><rect x="250.00" y="360.00" width="10.00" height="10.00"/></g>\n<g fill="#000000"><rect x="270.00" y="360.00" width="10.00" height="10.00"/></g>\n<g fill="#000000"><rect x="300.00" y="360.00" width="10.00" height="10.00"/></g>\n<g fill="#000000"><rect x="320.00" y="360.00" width="10.00" height="10.00"/></g>\n<g fill="#000000"><rect x="340.00" y="360.00" width="10.00" height="10.00"/></g>\n</g>\n</svg>